<svg width="1024" height="276" viewBox="0 0 1024 276" fill="none" xmlns="http://www.w3.org/2000/svg">
<mask id="mask0" mask-type="alpha" maskUnits="userSpaceOnUse" x="0" y="0" width="1024" height="276">
<rect width="1024" height="276" fill="#C4C4C4"/>
</mask>
<g mask="url(#mask0)">
<rect width="1024" height="276" fill="#F28883"/>
<circle cx="88.5" cy="232.5" r="63.5" fill="#FDF6C3" fill-opacity="0.6"/>
<path fill-rule="evenodd" clip-rule="evenodd" d="M1019.63 248.558C1016.65 238.607 1009.65 230.818 1002.37 223.682C988.22 209.789 980.607 201.199 975.562 180.876C972.595 168.924 969.575 156.258 960.165 147.587C953.313 141.272 941.521 135.967 932.357 140.489C918.261 148.903 914.475 166.169 915.897 181.631C917.659 200.794 926.61 212.61 943.807 219.669C953.497 223.644 959.938 228.889 965.198 238.029C969.405 245.338 971.858 254.49 977.145 261.115C985.05 271.019 994.941 275.422 1007.13 273.777C995.714 252.766 982.371 231.557 966.278 213.866C964.771 212.087 955.886 205.28 957.678 202.249C959.652 198.911 968.774 211.448 968.709 211.373C973.386 216.741 977.714 222.446 981.963 228.206C981.953 228.211 981.94 228.214 981.928 228.22C986.304 234.13 990.644 240.128 994.902 246.2C996.624 248.769 998.3 251.37 999.905 254.037C1002.26 257.95 1006 269.055 1009.85 271.462C1010.67 271.976 1011.44 272.264 1012.15 272.382C1014.78 276.687 1017.33 281.025 1019.77 285.416C1026.12 296.882 1031.57 308.988 1034.08 321.933C1034.81 325.711 1034.29 339.845 1036.87 342.572C1041.58 347.561 1040.2 337.954 1039.92 335.054C1037.58 311.041 1028.96 290.582 1016.44 270.394C1020.29 265.372 1020.84 252.59 1019.63 248.558Z" fill="#F2F2F2"/>
<path fill-rule="evenodd" clip-rule="evenodd" d="M858.131 260.161C863.102 254.304 875.052 253.31 882.361 253.702C891.404 254.187 900.694 256.389 909.298 259.051C923.471 263.435 937.244 271.437 949.727 279.182C951.231 280.115 969.764 291.26 968.124 293.216C966.498 295.154 948.305 281.915 944.25 279.633C935.597 274.763 927.662 269.003 918.124 265.786C908.249 262.455 897.805 261.136 887.42 261.227C886.087 261.239 881.74 260.31 881.646 262.282C881.554 264.21 888.748 263.204 890.016 263.216C895.255 263.264 900.527 263.757 905.691 264.665C915.368 266.366 924.465 269.792 932.753 275.048C930.44 280.425 924.897 282.904 919.081 281.558C914.055 280.395 909.156 277.526 904.234 276.697C900.845 276.126 897.451 276.466 894.164 277.421C885.494 279.94 880.494 285.102 870.961 281.511C863.489 278.697 850.991 268.584 858.131 260.161Z" fill="#F2F2F2"/>
<path fill-rule="evenodd" clip-rule="evenodd" d="M836.753 165.782C825.714 164.977 813.388 173.787 808.063 182.954C803.771 190.346 804.494 200.052 807.145 207.904C808.921 213.162 812.795 220.657 819.257 220.73C827.341 220.822 827.73 210.938 827.887 205.159C828.095 197.477 829.076 190.785 835.195 185.549C835.95 184.902 836.743 184.297 837.536 183.692C838.239 183.155 838.943 182.618 839.62 182.053C839.728 181.962 839.837 181.872 839.946 181.781C842.11 179.982 844.383 178.092 844.659 175.127C845.06 170.83 842.608 170.056 838.864 170.855C838.743 170.88 838.415 171.003 837.969 171.171C836.057 171.888 831.977 173.418 832.749 171.589C833.039 170.9 834.101 170.353 835.441 169.944C838.907 169.571 843.042 169.139 844.231 169.397C857.058 172.181 862.052 189.759 863.379 200.927C863.529 202.191 863.649 203.46 863.753 204.731H866.105C865.94 201.746 865.726 198.767 865.221 195.815C863.331 184.753 857.42 168.506 844.455 166.71C843.977 166.643 842.217 166.632 840.086 166.756C839.076 166.198 837.945 165.86 836.753 165.782Z" fill="#F2F2F2"/>
<g opacity="0.5">
<path fill-rule="evenodd" clip-rule="evenodd" d="M341.223 122.445C345.425 116.453 353.224 101.235 359.138 99.0936C362.948 97.7146 361.837 111.98 361.884 114.7C362.067 125.224 361.043 135.681 359.778 146.116C357.498 164.937 350.045 181.697 339.822 197.715C334.562 205.957 328.391 214.3 319.845 219.442C315.912 221.811 311.179 222.207 307.294 224.248C302.769 226.623 305.233 224.703 303.194 229.417C300.363 235.963 299.457 244.408 298.147 251.392C292.132 283.455 277.568 452.945 280.093 485.558C280.317 488.449 276.287 489.14 276.085 485.611C275.016 466.9 284.27 337.322 288.94 294.947C293.609 252.571 298.334 215.135 303.071 200.474C308.819 182.687 319.199 161.298 327.84 144.711C331.854 137.006 336.229 129.565 341.223 122.445Z" fill="#69A1AC"/>
<path fill-rule="evenodd" clip-rule="evenodd" d="M164.913 255.031C171.032 256.227 181.031 270.07 186.075 275.344C192.07 281.612 197.508 288.292 202.635 295.292C213.671 310.358 223.541 326.376 231.934 343.08C245.616 370.311 256.578 398.265 264.533 427.918C269.403 446.069 272.556 464.883 274.424 483.565C274.777 487.089 278.471 514.253 273.148 514.985C268.361 515.644 269.84 494.359 269.609 491.463C266.998 458.798 259.177 427.015 248.299 396.226C245.929 389.519 243.728 381.304 239.938 375.268C237.209 370.921 239.919 372.437 235.123 370.792C231.005 369.378 226.313 369.724 222.096 367.993C212.936 364.237 205.601 356.944 199.171 349.608C186.676 335.351 176.774 319.928 171.613 301.66C168.749 291.532 166.118 281.344 164.658 270.902C164.281 268.203 160.972 254.26 164.913 255.031Z" fill="#69A1AC"/>
<path fill-rule="evenodd" clip-rule="evenodd" d="M189.061 24.716C212.111 64.6904 231.053 108.601 243.283 153.076C250.694 180.023 255.876 207.675 261.025 235.126C268.997 277.632 276.538 320.134 278.683 363.395C280.841 406.906 285.108 457.092 270.861 499C277.978 456.452 271.202 411.162 270.002 368.35C269.429 347.912 267.768 327.674 265.588 307.355C263.473 287.645 260.018 268.029 256.801 248.474C255.234 238.95 253.588 229.441 251.912 219.937C251.411 217.101 251.2 208.687 249.401 206.75C247.591 204.8 238.354 204.005 235.454 202.574C229.615 199.693 224.122 195.6 219.261 191.275C209.942 182.984 201.835 172.151 195.436 161.472C180.631 136.764 174.712 106.61 175.011 77.9942C175.068 72.4382 184.003 12.61 180.415 11.7861C180.631 11.533 180.835 11.2718 181.028 11C183.745 15.5488 186.411 20.1284 189.061 24.716Z" fill="#89C5CC"/>
<path fill-rule="evenodd" clip-rule="evenodd" d="M437.846 168.887C438.202 168.374 440.517 164.807 439.351 165.035C441.724 164.57 436.087 168.969 442 166.27C439.192 168.922 440.813 172.366 440.85 175.935C440.911 181.73 439.942 187.476 438.851 193.146C437.126 202.109 434.557 210.823 430.828 219.159C422.701 237.326 408.901 254.814 392.518 266.172C384.43 271.779 376.504 273.689 367.28 276.27C361.453 277.901 360.991 280.915 357.898 286.569C351.46 298.345 345.136 310.078 339.457 322.251C332.677 336.788 326.095 351.34 319.886 366.132C298.969 415.957 281.945 467.578 273.005 521C272.786 489.519 280.069 457.095 289.255 427.088C295.947 405.226 304.658 384.151 313.95 363.29C316.201 358.236 319.613 351.735 320.57 346.155C321.239 342.245 319.192 338.486 318.255 334.367C314.601 318.33 314.863 300.363 318.071 284.24C321.609 266.461 331.839 258.209 349.145 255.691C355.474 254.769 363.519 255.107 369.322 252.408C375.645 249.47 378.253 239.81 381.849 233.61C391.506 216.953 402.98 200.979 416.155 186.945C419.803 183.059 423.726 179.473 427.888 176.15C430.513 174.053 436.058 171.47 437.846 168.887Z" fill="#89C5CC"/>
</g>
<path opacity="0.2" fill-rule="evenodd" clip-rule="evenodd" d="M161.791 41.6868C158.333 39.4559 152.966 40.881 149.483 42.2003C148.141 42.7091 144.711 44.3358 142.167 46.1661C142.504 44.8981 142.804 43.6189 143.067 42.3294C144.146 37.027 144.89 31.6244 145.25 26.2532C145.343 24.8522 145.223 23.287 145.102 21.7013L145.102 21.7005C145.061 21.1636 145.019 20.6243 144.986 20.0883C145.125 19.9615 145.219 19.7865 145.259 19.5495C145.274 19.6477 145.282 19.7265 145.288 19.7868C145.298 19.8831 145.304 19.932 145.322 19.9372C145.34 19.9425 145.372 19.9011 145.437 19.8169C145.462 19.7846 145.492 19.746 145.528 19.7014C148.103 16.4496 150.267 12.7859 150.566 8.75918C150.819 5.34415 147.501 -1.11572 142.79 3.35921C140.682 5.35774 141.22 19.3868 144.384 20.2452C143.536 24.8944 142.47 29.5358 141.136 34.1183C140.937 34.0887 140.733 34.0861 140.532 34.1094C140.552 32.9702 140.555 31.7271 140.5 31.2998C140.028 27.6179 136.391 20.144 130.593 21.5979C126.137 22.7152 128.865 27.3056 130.38 29.3146C132.818 32.5491 135.578 33.949 139.073 35.6301C139.142 36.3254 139.673 36.7294 140.299 36.8605C137.954 44.2612 134.874 51.4796 130.846 58.2984L130.739 57.8654L130.739 57.8649C130.229 55.7959 129.635 53.3838 129.258 52.8773C127.287 50.2262 122.922 46.9889 118.894 48.5599C110.435 51.8636 119.609 61.3445 126.809 62.3731C127.108 62.7224 127.424 63.0033 127.761 63.1643C126.361 65.2226 124.864 67.2382 123.263 69.202C120.862 72.1557 118.282 75.1 115.577 78.0272C115.495 75.7384 114.428 70.6377 114.125 70.0898C112.281 66.7621 106.961 63.3396 102.643 65.706C97.7857 68.3741 102.185 73.41 104.953 75.6887C106.088 76.6229 111.7 80.046 113.681 80.0607C107.145 86.9634 99.9318 93.7484 92.5981 100.288C93.2071 97.3616 94.0051 89.3026 93.9171 88.4083C93.4649 83.7918 89.8779 76.4093 82.8012 78.2116C75.9355 79.9574 78.9676 87.627 81.3153 91.2827C82.7373 93.4952 84.704 95.7431 87.0764 97.2856C87.504 97.5634 88.0625 97.7902 88.6201 98.0167C89.2925 98.2897 89.9635 98.5622 90.4019 98.9229C90.7926 99.2446 90.9123 99.614 91.0311 99.9803C91.1565 100.367 91.2807 100.751 91.722 101.071C87.7586 104.59 83.7677 108.035 79.8339 111.385C77.9778 112.966 76.088 114.517 74.1797 116.048C73.1363 115.683 71.6479 116.164 71.7247 117.413C71.7358 117.594 71.7854 117.751 71.8522 117.894C70.406 119.031 68.9505 120.16 67.4838 121.276C67.5174 120.951 67.5079 120.493 67.441 119.86C68.4959 121.128 68.4528 119.28 68.4199 117.872C68.4083 117.374 68.398 116.931 68.4379 116.7C68.5936 115.794 68.7948 114.898 68.9957 114.003L68.9957 114.003C69.4249 112.091 69.8527 110.185 69.8326 108.212C69.789 104.024 66.654 97.0053 60.0465 99.5019C53.9709 101.794 56.1772 108 58.4663 111.89C59.9155 114.352 61.8991 116.55 63.9723 118.654C64.3421 119.03 64.7523 119.538 65.1585 120.042C65.7615 120.789 66.3556 121.526 66.795 121.8C61.1526 126.074 55.3776 130.223 49.6021 134.371C47.0152 136.23 44.4281 138.088 41.8528 139.958C41.7409 139.548 41.6486 139.142 41.5691 138.761C41.73 138.915 41.949 138.986 42.23 138.972C42.3051 138.658 42.4138 138.24 42.5443 137.738C44.1377 131.613 48.9908 112.955 35.8784 116.576C26.2713 119.237 33.0416 135.478 40.2022 141.158C35.8528 144.332 31.5446 147.547 27.3371 150.858C24.2925 153.254 21.3378 155.732 18.4955 158.292C19.9675 154.978 21.3552 150.688 20.4481 147.274C19.1274 142.307 12.9283 137.619 6.87139 140.448C-0.679331 143.991 5.12508 148.822 10.5682 153.352C13.3474 155.665 16.0325 157.9 16.7974 159.845C7.76185 168.243 0.0464363 177.572 -5.11154 188.197C-10.7213 199.752 -15.9316 215.276 -13.0629 228.199C-13.5907 222.517 -11.3149 215.38 -9.71666 210.368C-9.49902 209.686 -9.29395 209.043 -9.11023 208.448C-6.70872 200.675 -3.29897 193.111 1.1926 186.031C8.38715 174.692 17.8872 165.064 28.8536 156.323C31.349 157.056 34.059 158.416 36.3035 159.543L36.3037 159.543C37.6804 160.234 38.8819 160.837 39.7513 161.153C43.9444 162.681 51.9956 164.87 54.6704 160.051C57.3003 155.313 50.5962 152.666 46.4411 151.606C42.4256 150.584 38.8049 150.709 35.058 151.55C40.862 147.2 46.8074 142.988 52.7518 138.776L52.7536 138.775C53.847 138 54.9403 137.225 56.0328 136.45C57.5426 137.496 59.21 139.008 60.9805 140.615C66.5995 145.712 73.2564 151.75 79.2078 146.812C88.1891 139.359 71.0248 131.795 63.7097 132.389C62.8118 132.462 61.9429 132.622 61.0957 132.84C68.5583 127.484 75.9056 122.018 82.8545 116.168C84.1011 116.36 86.0843 117.909 88.4668 119.771C93.8213 123.954 101.192 129.713 106.75 125.174C110.762 121.897 109.392 116.796 105.518 113.881C101.628 110.954 95.9865 110.961 91.1909 111.95C89.1178 112.375 87.2051 113.186 85.4217 114.174L85.3088 114.179L85.2003 114.184C92.0383 108.367 98.9182 102.419 105.545 96.268L105.693 96.3082C105.761 96.3267 105.829 96.3454 105.898 96.3643C106.298 96.7789 106.968 96.9303 107.582 96.8383C107.921 96.9362 108.267 97.037 108.619 97.1398C113.864 98.6682 120.606 100.633 125.835 99.7819C129.684 99.1558 133.177 96.5096 129.921 93.255C127.275 90.6082 120.09 90.9916 116.585 91.6203C114.875 91.9275 113.013 92.8161 111.145 93.7078C110.36 94.0824 109.574 94.4576 108.797 94.7904C108.596 94.4467 108.244 94.2261 107.844 94.1203C114.388 87.9394 120.632 81.545 126.296 74.8731C128.009 75.0967 129.909 75.7321 131.868 76.3874C136.583 77.9643 141.643 79.6566 145.277 76.0055C150.643 70.6142 140.56 67.4733 135.766 67.9873C134.147 68.1606 132.55 68.5491 131.009 69.0621C135.131 63.5693 138.28 57.6987 140.494 51.5336C140.515 51.5427 140.535 51.552 140.555 51.5614L140.555 51.5615L140.555 51.5616C140.586 51.5763 140.617 51.5911 140.655 51.6051C140.622 51.5899 140.593 51.574 140.564 51.5582C140.542 51.5464 140.52 51.5347 140.497 51.5234C140.718 50.9066 140.93 50.287 141.132 49.6652C141.507 49.4888 141.857 49.359 142.024 49.3055C139.845 50.576 149.034 51.1933 150.755 51.3088C154.559 51.5639 159.656 51.6576 162.449 49.0216C164.794 46.8073 164.659 43.5376 161.791 41.6868ZM-13.6327 227.689C-13.4645 229.415 -12.9653 230.99 -11.9823 232.281C-12.7039 230.806 -13.2451 229.27 -13.6327 227.689Z" fill="#C1DEE2"/>
<path opacity="0.2" fill-rule="evenodd" clip-rule="evenodd" d="M957.12 168.695C953.5 165.797 947.371 166.854 943.352 167.989C941.803 168.426 937.812 169.916 934.786 171.73C935.293 170.324 935.762 168.901 936.189 167.463C937.946 161.549 939.34 155.486 940.302 149.418C940.552 147.836 940.582 146.044 940.613 144.229L940.613 144.226C940.623 143.612 940.633 142.995 940.652 142.383C940.821 142.254 940.944 142.065 941.013 141.799C941.019 141.912 941.02 142.003 941.021 142.072C941.022 142.183 941.022 142.239 941.042 142.247C941.062 142.254 941.102 142.211 941.183 142.122C941.215 142.088 941.252 142.047 941.296 142C944.506 138.574 947.299 134.636 948.054 130.09C948.693 126.235 945.671 118.544 939.953 123.137C937.395 125.188 936.53 141.191 939.965 142.498C938.534 147.694 936.862 152.858 934.896 157.928C934.677 157.873 934.451 157.849 934.224 157.854C934.365 156.561 934.498 155.149 934.481 154.657C934.34 150.422 931.069 141.546 924.457 142.591C919.376 143.394 921.935 148.898 923.413 151.34C925.792 155.272 928.721 157.153 932.439 159.43C932.444 160.227 932.993 160.742 933.677 160.957C930.291 169.123 926.105 177.006 920.903 184.334L920.829 183.831C920.478 181.425 920.067 178.621 919.7 178.006C917.781 174.786 913.256 170.649 908.604 172.012C898.833 174.881 908.064 186.619 915.979 188.543C916.276 188.971 916.599 189.324 916.957 189.542C915.182 191.735 913.304 193.87 911.315 195.934C908.331 199.04 905.148 202.116 901.828 205.16C901.976 202.55 901.32 196.64 901.039 195.986C899.332 192.01 893.763 187.562 888.704 189.799C883.013 192.323 887.389 198.508 890.235 201.389C891.401 202.57 897.297 207.049 899.502 207.273C891.499 214.434 882.752 221.391 873.897 228.056C874.882 224.793 876.613 215.716 876.609 214.691C876.587 209.396 873.362 200.628 865.288 201.935C857.456 203.2 860.033 212.236 862.267 216.637C863.62 219.301 865.576 222.063 868.059 224.064C868.506 224.425 869.105 224.741 869.702 225.057C870.423 225.438 871.142 225.818 871.593 226.274C871.995 226.681 872.089 227.113 872.183 227.542C872.283 227.995 872.381 228.444 872.839 228.854C868.055 232.438 863.248 235.937 858.515 239.333C856.282 240.935 854.014 242.5 851.728 244.04C850.603 243.516 848.894 243.907 848.849 245.334C848.843 245.542 848.882 245.725 848.941 245.895C847.211 247.036 845.471 248.166 843.72 249.282C843.792 248.916 843.829 248.393 843.821 247.667C844.863 249.219 845.009 247.114 845.119 245.509L845.119 245.509C845.158 244.942 845.193 244.438 845.262 244.179C845.53 243.167 845.848 242.169 846.165 241.173C846.843 239.044 847.519 236.922 847.703 234.678C848.092 229.913 845.332 221.606 837.709 223.752C830.7 225.72 832.51 233.005 834.654 237.667C836.011 240.618 837.991 243.324 840.082 245.933C840.454 246.398 840.858 247.02 841.258 247.634C841.852 248.547 842.437 249.447 842.898 249.804C836.165 254.071 829.297 258.182 822.428 262.292L822.427 262.293L822.426 262.294C819.349 264.135 816.273 265.976 813.209 267.831C813.127 267.354 813.066 266.882 813.018 266.441C813.181 266.632 813.417 266.737 813.732 266.75C813.848 266.401 814.013 265.937 814.211 265.381L814.211 265.38C816.627 258.584 823.984 237.885 808.995 240.627C798.012 242.645 803.859 261.816 811.244 269.022C806.066 272.174 800.93 275.377 795.895 278.7C792.253 281.104 788.701 283.611 785.267 286.223C787.253 282.61 789.248 277.879 788.594 273.904C787.641 268.12 781.224 262.142 774.179 264.723C765.396 267.959 771.358 274.058 776.95 279.778C779.805 282.699 782.563 285.52 783.212 287.811C772.267 296.41 762.695 306.206 755.837 317.743C748.379 330.289 740.951 347.39 742.797 362.38C742.803 355.865 746.084 347.991 748.389 342.462C748.703 341.709 748.998 340.999 749.265 340.343C752.754 331.759 757.343 323.518 763.088 315.941C772.29 303.806 783.881 293.858 797.014 285.07C799.718 286.166 802.595 287.996 804.979 289.511C806.44 290.441 807.716 291.252 808.652 291.703C813.164 293.879 821.907 297.21 825.391 292.014C828.816 286.903 821.623 283.193 817.104 281.553C812.736 279.969 808.689 279.732 804.426 280.296C811.348 275.959 818.413 271.793 825.478 267.629L825.478 267.628L825.481 267.627C826.779 266.861 828.078 266.096 829.375 265.329C830.948 266.676 832.648 268.57 834.453 270.582C840.181 276.964 846.968 284.526 854.115 279.536C864.901 272.005 846.566 261.609 838.354 261.518C837.346 261.506 836.361 261.598 835.394 261.757C844.269 256.451 853.027 251.007 861.381 245.086C862.75 245.434 864.798 247.403 867.258 249.769C872.787 255.085 880.398 262.404 887.065 257.826C891.878 254.522 890.884 248.58 886.872 244.861C882.844 241.126 876.557 240.543 871.111 241.164C868.756 241.431 866.54 242.152 864.45 243.088C864.407 243.086 864.365 243.084 864.323 243.082L864.202 243.077C872.429 237.18 880.717 231.14 888.743 224.843C888.869 224.891 888.998 224.94 889.126 224.989C889.529 225.503 890.26 225.745 890.954 225.705C891.321 225.851 891.696 226.002 892.078 226.156C897.762 228.443 905.069 231.382 910.984 230.963C915.338 230.655 919.507 228.013 916.22 223.972C913.547 220.686 905.501 220.369 901.531 220.717C899.593 220.887 897.426 221.702 895.251 222.52L895.25 222.52C894.337 222.863 893.422 223.207 892.522 223.504C892.333 223.092 891.965 222.805 891.529 222.643C899.467 216.302 907.093 209.688 914.101 202.698C915.987 203.132 918.037 204.053 920.152 205.003C925.24 207.289 930.701 209.743 935.133 205.974C941.675 200.408 930.768 195.781 925.373 195.863C923.551 195.891 921.731 196.165 919.96 196.586C925.127 190.775 929.25 184.432 932.36 177.656C932.383 177.668 932.404 177.681 932.425 177.694L932.425 177.694L932.426 177.694C932.459 177.714 932.492 177.734 932.533 177.754C932.499 177.734 932.469 177.714 932.44 177.694C932.424 177.684 932.409 177.673 932.393 177.662C932.384 177.656 932.375 177.651 932.365 177.645C932.676 176.967 932.977 176.285 933.267 175.599C933.703 175.438 934.106 175.327 934.299 175.284C931.738 176.499 941.912 178.164 943.817 178.476C948.03 179.164 953.699 179.805 957.086 177.101C959.931 174.83 960.122 171.099 957.12 168.695ZM742.215 361.741C742.222 363.72 742.614 365.563 743.575 367.132C742.925 365.38 742.482 363.577 742.215 361.741Z" fill="#C1DEE2"/>
<circle cx="916" cy="19" r="82" fill="#FDF6C3" fill-opacity="0.6"/>
<path fill-rule="evenodd" clip-rule="evenodd" d="M693.708 74.878C697.547 76.3588 702.512 73.8713 705.654 71.8709C706.864 71.0997 709.891 68.8091 712.01 66.4994C711.938 67.8094 711.904 69.1229 711.909 70.4389C711.932 75.8499 712.302 81.291 713.043 86.6229C713.302 88.4848 713.996 90.5569 714.556 92.6053C714.445 92.7577 714.389 92.9482 714.398 93.1883C714.231 92.7334 714.304 92.7009 714.104 93.0943C712.244 96.8021 710.872 100.829 711.398 104.833C711.845 108.228 716.408 113.877 720.11 108.537C721.768 106.152 718.385 92.5258 715.113 92.3291C714.998 87.6046 715.096 82.8435 715.47 78.0854C715.672 78.0738 715.871 78.0349 716.064 77.9712C716.276 79.0905 716.526 80.3082 716.667 80.7154C717.878 84.2242 722.96 90.8017 728.341 88.1985C732.475 86.1979 728.871 82.2586 726.979 80.5998C723.933 77.9292 720.947 77.1201 717.183 76.1853C716.973 75.5187 716.372 75.2312 715.731 75.2303C716.522 67.5072 718.068 59.8132 720.625 52.3173C721.583 54.3154 722.777 56.853 723.283 57.3018C725.752 59.4964 730.685 61.7778 734.308 59.4201C741.918 54.4642 731.007 47.0485 723.749 47.5064C723.385 47.2252 723.018 47.0146 722.655 46.9255C723.607 44.6253 724.662 42.3474 725.83 40.0989C727.58 36.7184 729.507 33.3106 731.56 29.8943C732.106 32.1184 734.189 36.8954 734.597 37.3701C737.08 40.2529 742.984 42.5214 746.731 39.3258C750.943 35.7253 745.611 31.69 742.437 30.0222C741.137 29.3383 734.945 27.1288 733.003 27.5175C737.997 19.4293 743.679 11.3185 749.529 3.42327C749.528 6.41252 750.386 14.4654 750.654 15.3231C752.037 19.7509 757.051 26.2491 763.613 23.0445C769.979 19.9382 765.45 13.046 762.408 9.94451C760.565 8.06765 758.182 6.26698 755.546 5.23952C754.498 4.83136 752.876 4.79603 751.957 4.31311C751.035 3.82897 751.195 2.91407 750.227 2.47888C753.392 -1.7729 756.598 -5.95852 759.768 -10.0389C761.263 -11.9647 762.798 -13.8673 764.355 -15.7548C765.451 -15.6095 766.81 -16.3838 766.481 -17.5906C766.433 -17.7659 766.353 -17.909 766.258 -18.0358C767.443 -19.4431 768.638 -20.8444 769.847 -22.2361C769.88 -21.911 769.983 -21.464 770.177 -20.8579C768.43 -22.2478 769.813 -18.459 769.844 -17.561C769.943 -14.6818 769.587 -11.7971 770.205 -8.96725C771.1 -4.87579 775.598 1.3584 781.559 -2.43054C787.041 -5.91045 783.618 -11.5377 780.586 -14.881C778.666 -16.9965 776.276 -18.7448 773.818 -20.383C772.729 -21.1099 771.228 -22.5892 770.415 -22.8888C777.154 -30.6103 784.22 -38.1308 791.14 -45.7425C791.333 -45.3638 791.506 -44.9844 791.661 -44.6283C791.473 -44.7459 791.244 -44.7714 790.971 -44.7004C790.845 -40.4322 788.655 -17.3426 801.747 -24.0654C810.612 -28.6254 800.679 -43.1493 792.512 -47.2526C796.125 -51.2458 799.688 -55.2701 803.134 -59.368C805.628 -62.333 808.016 -65.3602 810.278 -68.4451C809.511 -64.9008 809.026 -60.4183 810.608 -57.2608C812.912 -52.6662 819.935 -49.3377 825.29 -53.3405C835.369 -60.9008 815.011 -65.1388 811.625 -70.3116C818.762 -80.3725 824.418 -91.0761 827.306 -102.528C830.447 -114.983 832.39 -131.243 826.952 -143.312C828.852 -137.112 827.592 -128.339 827.101 -123.169C826.331 -115.07 824.532 -106.971 821.575 -99.125C816.838 -86.5589 809.496 -75.1999 800.538 -64.4096C796.355 -64.7497 791.294 -66.5714 788.885 -66.9217C784.469 -67.5643 776.141 -68.0688 774.502 -62.8068C772.891 -57.6326 779.994 -56.4057 784.278 -56.2134C788.417 -56.0291 791.937 -56.8885 795.434 -58.4748C789.754 -52.0333 783.84 -45.7405 777.971 -39.422C770.912 -42.4151 759.513 -52.803 753.172 -44.8517C745.895 -35.7271 764.239 -31.8142 771.281 -33.8846C772.145 -34.1382 772.963 -34.472 773.748 -34.858C767.532 -28.0956 761.45 -21.2488 755.837 -14.1071C751.747 -13.8926 737.137 -26.1181 730.609 -18.062C727.348 -14.0374 729.727 -9.32245 734.113 -7.25679C738.517 -5.18192 744.039 -6.33703 748.533 -8.28093C750.477 -9.11903 752.184 -10.3021 753.729 -11.6323C753.803 -11.651 753.873 -11.6695 753.944 -11.6875C748.433 -4.6002 742.907 2.62327 737.671 9.99379C737.551 9.98661 737.429 9.97918 737.306 9.97125C736.829 9.64678 736.142 9.63497 735.56 9.84998C729.988 9.42189 722.369 8.6574 717.09 10.682C713.449 12.0782 710.568 15.3798 714.417 17.9039C717.547 19.9568 724.504 18.1194 727.807 16.7908C730.096 15.8695 732.446 13.7377 734.787 12.1023C735.054 12.3978 735.443 12.5423 735.857 12.5643C730.708 19.9475 725.895 27.4787 721.707 35.1636C715.839 35.605 706.878 31.81 702.893 37.9171C698.736 44.2874 709.247 45.3109 713.837 43.8322C715.386 43.3331 716.87 42.6279 718.275 41.812C715.357 48.0286 713.468 54.4172 712.556 60.9037C712.497 60.892 712.449 60.8764 712.383 60.8665C712.445 60.8807 712.496 60.8993 712.554 60.9145C712.463 61.5633 712.382 62.2131 712.311 62.8629C711.98 63.1118 711.664 63.3102 711.51 63.3966C713.385 61.7093 704.263 62.9747 702.555 63.2118C698.778 63.7361 693.769 64.6814 691.571 67.8306C689.725 70.4758 690.523 73.6497 693.708 74.878Z" fill="#89C5CC"/>
</g>
</svg>
