<svg width="1024" height="371" viewBox="0 0 1024 371" fill="none" xmlns="http://www.w3.org/2000/svg">
<mask id="mask0" mask-type="alpha" maskUnits="userSpaceOnUse" x="0" y="0" width="1024" height="371">
<rect width="1024" height="371" fill="#C4C4C4"/>
</mask>
<g mask="url(#mask0)">
<rect width="1024" height="371" fill="#FDF6C3"/>
<circle cx="140.5" cy="343.5" r="63.5" fill="#FF6B6B" fill-opacity="0.5"/>
<path opacity="0.2" fill-rule="evenodd" clip-rule="evenodd" d="M174.791 54.7714C171.333 53.2755 165.966 54.231 162.483 55.1156C161.141 55.4568 157.711 56.5475 155.167 57.7747C155.504 56.9245 155.804 56.0669 156.067 55.2022C157.146 51.6469 157.89 48.0244 158.25 44.423C158.343 43.4838 158.223 42.4344 158.102 41.3713L158.102 41.3711L158.102 41.3699C158.061 41.01 158.019 40.6486 157.986 40.2894C158.125 40.2044 158.219 40.0871 158.259 39.9282C158.274 39.9941 158.282 40.0469 158.288 40.0873C158.298 40.1484 158.303 40.181 158.319 40.1873C158.337 40.1945 158.369 40.1668 158.437 40.1074C158.462 40.0858 158.492 40.0599 158.528 40.03C161.103 37.8497 163.266 35.3931 163.566 32.6932C163.819 30.4034 160.501 26.072 155.789 29.0725C153.682 30.4125 154.22 39.8191 157.384 40.3947C156.536 43.5119 155.47 46.624 154.136 49.6967C153.937 49.6767 153.733 49.675 153.532 49.6906C153.552 48.9268 153.555 48.0933 153.5 47.8068C153.027 45.3381 149.391 40.3268 143.593 41.3016C139.137 42.0508 141.865 45.1287 143.38 46.4757C145.818 48.6445 148.578 49.5831 152.073 50.7103C152.142 51.1765 152.673 51.4474 153.299 51.5353C150.954 56.4975 147.874 61.3375 143.846 65.9095L143.739 65.6189C143.229 64.2317 142.635 62.6142 142.258 62.2746C140.287 60.497 135.922 58.3265 131.894 59.3798C123.435 61.5949 132.609 67.9519 139.809 68.6416C140.108 68.8758 140.424 69.0641 140.761 69.1721C139.361 70.5523 137.864 71.9037 136.263 73.2204C133.862 75.2009 131.282 77.1751 128.577 79.1378C128.495 77.6032 127.428 74.1831 127.125 73.8157C125.281 71.5845 119.961 69.2897 115.643 70.8764C110.786 72.6653 115.185 76.0419 117.953 77.5698C119.088 78.1962 124.7 80.4914 126.681 80.5012C120.145 85.1296 112.932 89.6789 105.598 94.0639C106.207 92.1016 107.005 86.698 106.917 86.0983C106.465 83.003 102.878 78.0529 95.8011 79.2614C88.9354 80.432 91.9676 85.5745 94.3152 88.0257C95.7372 89.5092 97.7039 91.0164 100.076 92.0506C100.504 92.2369 101.062 92.389 101.62 92.5408C102.292 92.7239 102.963 92.9066 103.402 93.1485C103.793 93.3642 103.912 93.6119 104.031 93.8575C104.156 94.1169 104.281 94.374 104.722 94.5886C100.759 96.948 96.7676 99.2583 92.8338 101.505C90.9778 102.565 89.088 103.604 87.1796 104.631C86.1362 104.386 84.6479 104.709 84.7246 105.546C84.7358 105.668 84.7853 105.773 84.8521 105.869C83.4059 106.631 81.9505 107.388 80.4837 108.137C80.5174 107.919 80.5079 107.611 80.4409 107.187C81.4958 108.037 81.4527 106.798 81.4199 105.854C81.4083 105.52 81.398 105.223 81.4378 105.068C81.5935 104.461 81.7947 103.86 81.9957 103.26C82.4249 101.978 82.8527 100.7 82.8325 99.3769C82.789 96.5689 79.654 91.8627 73.0465 93.5367C66.9709 95.0732 69.1772 99.2344 71.4663 101.843C72.9154 103.494 74.899 104.967 76.9723 106.378C77.342 106.63 77.7522 106.971 78.1584 107.309L78.1584 107.309C78.7615 107.81 79.3556 108.304 79.795 108.488C74.1528 111.353 68.3781 114.135 62.6029 116.917L62.6023 116.917L62.5977 116.919C60.0122 118.164 57.4266 119.41 54.8528 120.663C54.7409 120.388 54.6485 120.115 54.569 119.86C54.73 119.963 54.9489 120.011 55.23 120.002C55.3051 119.791 55.4137 119.511 55.5443 119.174C57.1376 115.067 61.9908 102.557 48.8783 104.985C39.2712 106.769 46.0415 117.659 53.2021 121.467C48.8528 123.596 44.5445 125.751 40.337 127.971C37.2925 129.578 34.3378 131.239 31.4954 132.955C32.9674 130.733 34.3551 127.857 33.448 125.568C32.1274 122.238 25.9283 119.094 19.8713 120.992C12.3206 123.367 18.125 126.606 23.5681 129.644C26.3474 131.195 29.0325 132.693 29.7973 133.997C20.7618 139.628 13.0464 145.883 7.88842 153.007C2.2787 160.755 -2.93167 171.164 -0.0629738 179.829C-0.590713 176.019 1.68507 171.234 3.2833 167.873L3.28351 167.873C3.50107 167.415 3.70607 166.984 3.88973 166.586C6.29124 161.374 9.70099 156.302 14.1926 151.555C21.3871 143.952 30.8871 137.497 41.8535 131.635C44.349 132.127 47.0591 133.039 49.3036 133.794L49.3039 133.795C50.6805 134.258 51.8819 134.662 52.7513 134.874C56.9444 135.899 64.9955 137.366 67.6704 134.135C70.3002 130.958 63.5961 129.184 59.4411 128.473C55.4255 127.787 51.8048 127.871 48.0579 128.435C53.8625 125.518 59.8085 122.694 65.7535 119.869C66.8469 119.35 67.9403 118.83 69.0327 118.31C70.5425 119.012 72.2099 120.026 73.9804 121.103L73.9805 121.103C79.5994 124.521 86.2563 128.57 92.2077 125.258C101.189 120.261 84.0247 115.189 76.7097 115.588C75.8117 115.636 74.9429 115.744 74.0956 115.89C81.5582 112.299 88.9055 108.634 95.8544 104.712C97.101 104.84 99.0843 105.879 101.467 107.127C106.821 109.932 114.192 113.794 119.75 110.75C123.762 108.553 122.392 105.133 118.518 103.178C114.628 101.215 108.986 101.22 104.191 101.883C102.118 102.168 100.205 102.712 98.4216 103.374C98.3458 103.377 98.273 103.379 98.2002 103.381C105.038 99.4806 111.918 95.4925 118.545 91.3683C118.66 91.3893 118.779 91.4109 118.897 91.4329C119.298 91.7109 119.968 91.8124 120.582 91.7507C120.921 91.8164 121.267 91.8839 121.619 91.9528C126.864 92.9777 133.606 94.2949 138.835 93.7244C142.684 93.3046 146.177 91.5303 142.921 89.3481C140.275 87.5734 133.089 87.8305 129.585 88.252C127.875 88.458 126.013 89.0538 124.145 89.6517C123.36 89.9029 122.574 90.1544 121.797 90.3776C121.596 90.1472 121.244 89.9992 120.844 89.9283C127.388 85.7839 133.632 81.4965 139.296 77.0229C141.009 77.1729 142.909 77.5989 144.868 78.0383C149.583 79.0956 154.643 80.2303 158.277 77.7822C163.643 74.1674 153.56 72.0613 148.766 72.406C147.147 72.5222 145.55 72.7827 144.009 73.1266C148.131 69.4437 151.28 65.5074 153.494 61.3737C153.515 61.3798 153.535 61.3861 153.555 61.3924L153.555 61.3924C153.586 61.4023 153.617 61.4122 153.655 61.4217C153.622 61.4114 153.593 61.4008 153.563 61.3901C153.55 61.3851 153.536 61.38 153.522 61.3751C153.514 61.3723 153.506 61.3695 153.497 61.3668C153.718 60.9533 153.93 60.5378 154.132 60.1209C154.507 60.0026 154.857 59.9156 155.024 59.8797C152.845 60.7316 162.034 61.1455 163.755 61.223C167.559 61.394 172.656 61.4569 175.449 59.6894C177.794 58.2047 177.659 56.0123 174.791 54.7714ZM-0.632697 179.487C-0.464582 180.644 0.0347091 181.7 1.01768 182.566C0.296091 181.577 -0.245104 180.547 -0.632697 179.487Z" fill="#C1DEE2"/>
<path fill-rule="evenodd" clip-rule="evenodd" d="M87.3048 76.6748C86.9862 75.9716 86.5477 75.2834 85.8814 74.6664C85.7128 74.5104 84.4135 73.4047 84.2158 73.4752C83.7554 73.6394 87.216 76.455 87.3048 76.6748ZM97.7837 76.4723C97.7627 76.4897 97.8591 77.3198 97.868 77.5676C97.8874 78.0946 97.8743 78.6202 97.842 79.1398C97.9837 78.2521 98.0713 77.4131 97.7837 76.4723ZM52.6406 66.8545C51.9842 66.7659 51.6573 66.0762 52.4795 66.2281C53.1442 66.3518 53.1316 66.3205 53.6346 66.1181C54.0431 65.9537 54.4104 65.7066 54.8018 65.5208C55.632 65.1267 56.4966 64.7769 57.4397 64.4965C59.4612 63.8953 61.6327 63.5304 63.8718 63.3688C67.7793 63.0869 71.946 63.0414 75.8375 63.6597C82.025 64.6427 88.2535 66.7876 93.1692 69.3881C96.2137 70.9986 98.7283 72.8079 99.6288 75.2911C100.079 76.5321 100.174 77.8319 99.696 79.0554C99.5708 79.3752 99.3016 79.6843 99.2065 80.0071C99.0601 80.5034 99.0653 80.3593 99.8042 80.7294C100.611 81.1335 101.415 81.5392 102.219 81.9465C104.321 83.0129 106.425 84.0994 108.346 85.2987C108.979 85.6934 109.572 86.1116 110.128 86.55C110.548 86.8814 112.316 88.0819 112.233 88.6037C112.095 89.472 110.915 88.6353 110.592 88.3203C110.309 88.0443 110.008 87.7738 109.693 87.5113C108.901 86.8504 108.013 86.2411 107.064 85.6697C106.038 85.0522 104.949 84.4758 103.865 83.9009C102.853 83.3648 101.828 82.8396 100.797 82.3195C100.224 82.0304 99.6489 81.7431 99.074 81.4558C98.8776 81.3576 98.5918 81.1082 98.4834 81.291C97.2927 80.6644 95.8518 80.1799 94.5462 79.6586C92.9468 79.0203 91.3339 78.3893 89.6617 77.834C88.4556 77.4336 87.2283 77.0581 85.9679 76.736C85.2313 76.5478 84.4846 76.3903 83.7219 76.2561C83.3029 76.1824 81.7362 75.7843 81.3735 75.9136C81.5294 75.858 83.0825 76.5194 83.2925 76.588C84.1323 76.8628 84.9907 77.1037 85.8575 77.3396C87.466 77.7773 89.035 78.2658 90.5578 78.819C90.4198 78.9837 89.1395 78.9085 88.7969 78.9281C88.0285 78.9722 87.2663 79.0475 86.5202 79.162C85.2059 79.3636 83.615 79.6266 82.5016 80.0237C82.8297 79.9067 83.923 79.992 84.3547 79.9671C85.0465 79.9272 85.7394 79.8686 86.4184 79.7839C87.0453 79.7057 87.6576 79.5981 88.2673 79.4827C88.8773 79.367 89.8537 79.0227 90.5217 79.0391C90.562 79.0401 90.7033 79.2362 90.8654 79.2444C91.0287 79.2528 91.3482 79.1171 91.3881 79.1211C91.9762 79.1788 92.7979 79.6608 93.3056 79.861C94.6224 80.3798 95.9283 80.9102 97.2382 81.4363C97.644 81.5992 98.0452 81.6666 98.0511 81.914C98.0573 82.1777 97.3247 82.604 97.0611 82.7949C96.0824 83.504 94.9193 84.038 93.505 84.3534C90.8561 84.9444 88.1275 84.9951 85.3365 84.6847C74.6463 83.496 64.3488 80.875 56.9691 75.5161C53.914 73.2974 49.509 69.7089 52.6406 66.8545Z" fill="#4ECDC4" fill-opacity="0.5"/>
<g clip-path="url(#clip0)">
<rect x="113" y="45" width="206" height="205" rx="8" fill="#F2F2F2"/>
<rect x="266.116" y="70.4768" width="43.0448" height="47.9913" rx="8" fill="white"/>
<path fill-rule="evenodd" clip-rule="evenodd" d="M287.639 98.3238C293.073 98.3238 297.478 94.0796 297.478 88.844C297.478 83.6085 293.073 79.3643 287.639 79.3643C282.205 79.3643 277.8 83.6085 277.8 88.844C277.8 94.0796 282.205 98.3238 287.639 98.3238Z" fill="#DDE3E9"/>
<rect x="272.266" y="100.694" width="30.7463" height="3.55491" rx="1.77746" fill="#DDE3E9"/>
<rect x="277.185" y="106.619" width="20.9075" height="3.55491" rx="1.77746" fill="#DDE3E9"/>
<path d="M113 53C113 48.5817 116.582 45 121 45H311C315.418 45 319 48.5817 319 53V72H113V53Z" fill="#C5CFD6"/>
<path fill-rule="evenodd" clip-rule="evenodd" d="M126 63C128.209 63 130 61.2091 130 59C130 56.7909 128.209 55 126 55C123.791 55 122 56.7909 122 59C122 61.2091 123.791 63 126 63Z" fill="#F2F2F2"/>
<path fill-rule="evenodd" clip-rule="evenodd" d="M138 63C140.209 63 142 61.2091 142 59C142 56.7909 140.209 55 138 55C135.791 55 134 56.7909 134 59C134 61.2091 135.791 63 138 63Z" fill="#F2F2F2"/>
<path fill-rule="evenodd" clip-rule="evenodd" d="M150 63C152.209 63 154 61.2091 154 59C154 56.7909 152.209 55 150 55C147.791 55 146 56.7909 146 59C146 61.2091 147.791 63 150 63Z" fill="#F2F2F2"/>
<g clip-path="url(#clip1)">
<rect x="266.116" y="123.208" width="43.0448" height="114.942" rx="8" fill="white"/>
<g clip-path="url(#clip2)">
<rect x="284.116" y="141.208" width="7" height="26" rx="3.5" fill="#DDE3E9"/>
<rect x="284.116" y="175.208" width="7" height="25" rx="3.5" fill="#AFB9C5"/>
<rect x="284.116" y="208.208" width="7" height="25" rx="3.5" fill="#DDE3E9"/>
</g>
</g>
<g clip-path="url(#clip3)">
<rect x="129" y="89" width="96" height="47" rx="4" fill="white"/>
<g clip-path="url(#clip4)">
<rect x="138" y="103.1" width="38" height="7.05" rx="3" fill="#DDE3E9"/>
<rect x="138" y="114.85" width="25.5068" height="7.05" rx="3" fill="#DDE3E9"/>
</g>
</g>
<g clip-path="url(#clip5)">
<rect x="129" y="144" width="96" height="39" rx="4" fill="white"/>
<g clip-path="url(#clip6)">
<rect x="138" y="155.7" width="38" height="5.85" rx="2.925" fill="#DDE3E9"/>
<rect x="138" y="165.45" width="25.5068" height="5.85" rx="2.925" fill="#DDE3E9"/>
</g>
</g>
<g clip-path="url(#clip7)">
<rect x="129" y="191" width="96" height="39" rx="4" fill="white"/>
<g clip-path="url(#clip8)">
<rect x="138" y="202.7" width="38" height="5.85" rx="2.925" fill="#DDE3E9"/>
<rect x="138" y="212.45" width="25.5068" height="5.85" rx="2.925" fill="#DDE3E9"/>
</g>
</g>
<g clip-path="url(#clip9)">
<rect x="129" y="238" width="96" height="39" rx="4" fill="white"/>
<g clip-path="url(#clip10)">
<rect x="138" y="249.7" width="38" height="5.85" rx="2.925" fill="#DDE3E9"/>
</g>
</g>
</g>
<path fill-rule="evenodd" clip-rule="evenodd" d="M15.2734 254.541C13.7641 255.763 12.2838 257.011 10.8396 258.31C9.73893 259.3 7.79107 260.485 7.39595 261.985C6.98521 263.544 8.28193 265.003 9.30633 265.945C14.7233 270.929 20.8231 274.298 28.3293 274.859C39.8871 275.722 49.9457 272.77 59.9736 266.963C67.0177 262.883 71.6837 256.849 72.7027 248.701C81.0916 252.187 89.2052 256.993 96.0999 262.891C99.5019 265.801 102.432 269.025 105.142 272.599C106.878 274.889 108.557 277.215 110.115 279.631C110.792 280.68 111.481 282.542 112.599 283.146C113.912 283.856 115.499 282.743 115.434 281.284C115.379 280.069 114.068 278.66 113.454 277.667C112.436 276.018 111.402 274.379 110.313 272.776C108.551 270.179 106.73 267.62 104.744 265.19C100.28 259.73 94.6013 255.221 88.7143 251.375C77.4203 243.997 65.0254 239.349 51.2831 238.955C42.8332 238.713 35.7248 241.6 28.4988 245.911C23.9999 248.595 19.3558 251.235 15.2734 254.541" fill="#4ECDC4" fill-opacity="0.4"/>
<path fill-rule="evenodd" clip-rule="evenodd" d="M143.883 136.855C135.077 127.787 126.241 118.832 116.403 110.846C110.605 106.141 104.495 101.862 98.5105 97.4009C99.2013 98.0057 99.8784 98.6281 100.539 99.2656C98.6714 97.9975 96.226 97.2809 94.2455 96.1071C92.0366 94.798 89.9251 93.3005 87.8538 91.7909C83.811 88.845 79.8288 85.8432 75.6732 83.0509C71.043 79.9402 66.2446 77.0658 61.5357 74.0724C57.5392 71.5318 53.4939 68.7511 49.2185 66.6744C46.8883 65.5424 44.5526 64.2005 42.2129 63.0199C41.4298 62.6249 33.4841 57.6076 33.5041 57.5925C33.9433 57.2615 37.9418 59.1403 38.5601 59.393C40.3664 60.1308 42.0938 61.0133 43.8304 61.893C42.8772 60.0128 42.1227 58.0375 41.712 55.9582C41.5851 55.3164 40.5685 50.6442 41.0887 50.2522C41.3485 50.0564 43.8835 58.4157 44.0133 59.2194C44.1188 59.8722 44.1033 60.8123 44.317 61.4304C44.662 62.4288 44.6446 62.1273 45.4047 62.6897C46.7977 63.7206 48.6468 64.3647 50.1545 65.2265C50.9675 65.6803 53.4847 67.4801 55.0008 67.9932C59.5883 70.2213 64.2382 73.6492 68.597 76.4952C67.4531 74.3452 66.5825 72.0971 65.9477 69.7413C65.7966 69.182 64.1675 64.1645 64.5628 63.8666C65.0075 63.5315 68.1117 71.1945 68.2956 71.92C68.6372 73.2675 68.7081 74.7674 69.1357 76.0786C69.6052 77.5176 71.0699 78.0278 72.3902 78.8666C77.2475 81.9528 81.938 85.2321 86.5504 88.6618C91.5831 79.7112 85.7802 68.9027 80.8895 61.3927C77.3644 55.9803 72.6186 51.34 67.6077 47.2889C60.9203 41.8823 53.269 37.563 45.6271 33.6122C36.7227 29.0087 27.0987 26.1563 17.0933 24.8386C11.8603 24.1494 6.50668 24.1687 1.22083 24.3896C-1.36134 24.4974 -3.8398 24.8395 -6.31433 25.6816C-7.42962 26.0616 -8.5075 26.5405 -9.5579 27.0767C-10.356 27.4842 -12.2866 27.9143 -12.7455 28.5213C-16.5228 33.4377 -18.4552 38.3368 -18.1601 44.5148C-17.8811 50.363 -16.0341 56.2142 -13.5275 61.4307C-10.736 67.2395 -7.14575 72.5115 -2.45033 76.9362C1.13206 80.3122 5.1372 83.2503 9.11594 86.1499C23.267 96.463 41.2082 105.433 59.5363 103.128C65.4692 102.383 71.1121 100.308 76.3854 97.4884C77.6279 96.824 78.863 96.1521 80.0359 95.3675C80.8268 94.8389 82.941 92.4559 83.7362 92.3694C84.8265 92.2507 87.1754 94.4684 88.1983 95.1435C95.972 100.275 103.542 105.685 110.953 111.313C118.839 117.301 126.337 123.697 133.615 130.393C136.71 133.242 139.786 136.096 142.791 139.04C143.491 139.725 145.202 142.247 146.471 142.361C147.273 142.434 147.814 141.748 147.7 141.006C147.501 139.715 144.785 137.784 143.883 136.855" fill="#4ECDC4" fill-opacity="0.9"/>
<path fill-rule="evenodd" clip-rule="evenodd" d="M960.127 -4.19495C957.884 -0.170708 956.544 4.61018 955.319 9.02411C948.652 32.6667 953.176 59.1722 966.908 79.6275C978.599 97.0413 996.819 106.287 1015.54 114.604C1017.4 115.429 1019.29 116.107 1021.19 116.825C1021.59 116.979 1021.95 117.134 1022.29 117.286C1022.9 118.552 1023.81 119.389 1025.15 119.146C1029.4 122.795 1033.87 126.143 1038.59 129.275C1052.46 138.494 1066.6 147.879 1083.52 149.712C1074.89 146.402 1066.29 142.277 1058.11 137.971C1057.64 137.723 1057.18 137.469 1056.72 137.211C1056.67 137.184 1056.62 137.158 1056.57 137.131C1054.1 135.73 1051.75 134.17 1049.5 132.45C1049.47 132.432 1049.45 132.414 1049.42 132.395C1049.13 132.168 1048.83 131.934 1048.54 131.702C1047.94 131.221 1047.33 130.733 1046.74 130.229C1046.54 130.057 1046.33 129.89 1046.12 129.725C1043.02 127.274 1039.23 125.503 1035.96 123.162C1035.22 122.614 1034.49 122.054 1033.77 121.481C1033.73 121.447 1033.68 121.413 1033.64 121.379C1031.7 119.831 1029.81 118.198 1027.96 116.515C1027.69 115.82 1026.7 115.197 1025.87 114.417C1025.71 114.259 1024.65 113.087 1023.98 112.632C1022.95 111.658 1021.92 110.686 1020.89 109.709C1020.89 109.729 1020.89 109.75 1020.9 109.771C1019.92 108.807 1018.94 107.843 1017.97 106.886C1017.76 106.675 1017.55 106.463 1017.33 106.251C1016.99 105.91 1016.66 105.569 1016.32 105.229C1013.16 102.046 1010.11 98.7613 1007.14 95.4058C1006.08 94.2083 1004.78 91.7171 1003.43 90.9112C1003.38 90.8813 1003.33 90.8633 1003.28 90.8393C997.671 83.8102 992.832 76.199 989.684 67.86C990.348 68.9523 992.912 71.6162 993.385 72.2596C994.833 74.229 996.117 76.2813 997.42 78.3456C999.755 82.0428 1002.21 85.7044 1004.94 89.1212C1009.93 95.3698 1015.43 101.115 1021.13 106.694C1021.16 106.739 1021.19 106.788 1021.22 106.832C1022.94 109.298 1026.03 111.443 1028.23 113.504C1027.33 107.671 1027.43 101.549 1026.84 95.6634C1026.25 89.7939 1025.38 83.9946 1024.04 78.2476C1022.25 70.6094 1020.06 62.5845 1017.14 54.9993C1014.76 46.5946 1010.35 38.8179 1005.43 31.6478C999.616 23.1644 993.576 15.1797 985.318 8.89783C981.259 5.81153 976.896 3.03584 972.313 0.797073C972.113 0.699306 971.898 0.586601 971.676 0.467303C970.255 -0.852124 968.771 -2.09537 967.213 -3.23166C964.741 -5.03503 962.391 -8.25846 960.127 -4.19495" fill="#4ECDC4" fill-opacity="0.4"/>
<path fill-rule="evenodd" clip-rule="evenodd" d="M1064.57 152.081C1059.8 148.847 1053.47 148 1047.77 148C1025.5 148 1004.58 156.27 986.497 168.593C976.59 175.345 967.728 183.944 959.904 192.896C955.388 198.064 951.361 203.655 948.51 209.873C946.586 214.07 945.266 218.442 944.371 222.953C943.28 228.449 942.414 234.057 942.022 239.645C941.867 241.846 940.59 253.523 944.245 253.72C944.224 254.008 944.219 254.282 944.241 254.529C936.306 266.95 931.403 281.508 926.857 295.31C922.902 307.321 919.377 319.433 917.089 331.858C914.077 348.216 912.098 364.821 911.157 381.414C910.955 384.981 910.816 388.549 910.697 392.12C910.596 395.165 910.493 398.211 910.393 401.257C910.282 404.67 909.681 408.6 910.224 411.993C910.695 414.948 913.25 414.501 913.363 411.56C913.499 408.009 913.477 404.451 913.632 400.897C913.839 396.18 914.052 391.463 914.282 386.748C915.887 353.991 921.908 321.716 933.02 290.775C937.517 278.253 942.67 266.4 949.292 254.817C955.115 244.633 962.119 234.773 969.278 225.591C976.236 216.667 983.471 207.95 991.997 200.39C998.916 194.255 1006.53 188.91 1014.35 183.937C1024.29 177.621 1034.2 171.458 1044.97 166.609C1050.56 164.089 1056.26 161.833 1061.9 159.414C1062.91 158.979 1064 158.557 1064.98 158.054C1068.23 156.373 1067.16 153.842 1064.57 152.081" fill="#4ECDC4" fill-opacity="0.7"/>
<path fill-rule="evenodd" clip-rule="evenodd" d="M963.818 292C971.295 292 977.949 292.972 984.838 295.943C990.785 298.508 996.205 301.903 1001.47 305.599C1008.87 310.798 1014.7 316.848 1018.78 324.865C1021.22 329.654 1023.01 336.431 1021.37 341.655C1019.44 347.807 1014.14 352.939 1007.17 351.855C1002.86 351.185 998.903 348.33 995.625 345.643C991.703 342.428 988.564 338.563 985.972 334.27C981.744 327.267 979.26 319.351 975.668 312.033C973.964 308.56 972.317 305.063 970.275 301.762C969.265 300.128 968.189 298.509 966.656 297.294C965.836 296.644 962.378 295.52 963.7 294.061C944.31 294.315 927.132 309.207 923.409 327.641C923.063 329.359 922.792 331.091 922.505 332.82C922.325 333.911 922.398 337.937 921.422 338.634C919.27 340.172 920.174 335.499 920.267 334.826C920.506 333.087 920.76 331.35 921.027 329.615C922.481 320.181 926.681 311.411 933.685 304.683C941.694 296.99 952.501 292 963.818 292" fill="#89C5CC"/>
<path fill-rule="evenodd" clip-rule="evenodd" d="M1088.23 300.334C1087.69 299.946 1086.43 299.809 1085.84 299.692C1083.39 299.21 1080.87 299 1078.37 299C1070.68 299.012 1062.86 299.767 1055.3 301.074C1050.49 301.903 1044.69 304.696 1039.91 303.179C1031.58 300.537 1023.17 300.667 1015.27 304.439C1008.05 307.888 1002.57 314.439 999.373 321.517C998.89 322.586 996.932 326.519 996.378 329.17C996.141 329.712 995.913 330.257 995.708 330.811C995.126 332.384 994.603 333.984 994.118 335.588C993.91 336.272 993.389 337.782 994.008 338.074C993.019 339.901 992.141 341.783 991.411 343.726C989.286 349.378 986.962 355.578 986.215 361.568C985.939 363.786 985.928 366.017 986.185 368.239C986.312 369.338 986.26 371.546 987.004 372.382C988.585 374.154 989.396 371.673 989.218 370.491C987.858 361.485 990.485 353.027 993.598 344.561C995.612 339.087 998.92 334.078 1002.63 329.543C1005.62 325.871 1008.84 322.98 1012.95 320.546C1017.98 317.569 1023.36 315.163 1028.68 312.749C1032.18 311.161 1035.69 309.615 1039.29 308.247C1040.09 307.942 1041.35 307.161 1042.24 307.158C1044.12 307.152 1046.78 308.537 1048.59 309.052C1054.55 310.748 1060.59 312.919 1066.76 313.785C1070.71 314.341 1074.42 313.715 1078.11 312.398C1078.49 312.264 1079.12 311.918 1079.9 311.424C1082.65 310.368 1085.24 309.039 1087.5 307.121C1088.81 306.017 1089.99 304.589 1091.07 303.282C1091.39 302.892 1091.53 302.444 1091.54 302.018C1091.78 301.891 1091.94 301.741 1091.98 301.567C1092.25 300.281 1089.8 300.258 1088.23 300.334Z" fill="#89C5CC"/>
<circle cx="870.5" cy="7.5" r="63.5" fill="#FF6B6B" fill-opacity="0.5"/>
<path fill-rule="evenodd" clip-rule="evenodd" d="M262.474 175.415C265.778 177.408 269.024 178.371 270.547 177.978C274.368 176.992 274.72 163.004 271.763 157.49C268.807 151.975 253.608 149.572 252.842 160.498C252.577 164.29 254.168 167.674 256.518 170.435L252.303 190.096H264.548L262.474 175.415Z" fill="#B28B67"/>
<path fill-rule="evenodd" clip-rule="evenodd" d="M272.919 159.966C272.798 159.251 272.501 158.457 272.262 157.781C271.954 156.909 271.487 156.123 270.974 155.383C270.007 153.988 268.847 152.728 267.567 151.683C265.227 149.774 262.25 148.673 259.322 149.03C257.844 149.211 256.408 149.775 255.187 150.714C254.083 151.563 253.022 152.812 251.593 152.902C250.038 153 248.613 151.626 247.366 150.778C245.96 149.822 244.464 149.125 242.821 148.854C240.068 148.401 237.481 149.331 235.584 151.591C233.565 153.997 232.098 157.524 233.424 160.711C233.67 161.303 233.987 161.803 234.442 162.216C234.859 162.596 235.497 163 235.666 163.606C235.846 164.251 235.309 165.083 235.101 165.664C234.802 166.498 234.557 167.373 234.645 168.279C234.788 169.766 235.722 171.186 236.708 172.164C237.712 173.159 238.948 173.73 240.267 173.993C241.149 174.168 242.049 174.265 242.945 174.199C243.389 174.167 243.782 174.043 244.212 173.945C244.631 173.849 244.865 173.96 245.221 174.19C246.872 175.258 248.647 175.672 250.553 175.513C252.162 175.379 254.017 174.989 255.329 173.885C256.787 172.66 256.758 170.971 256.415 169.166C256.778 169.346 257.783 169.458 257.183 168.739C256.945 168.455 256.495 168.339 256.19 168.172C255.834 167.977 255.473 167.725 255.197 167.407C254.082 166.124 255.208 163.512 256.609 163.082C258.691 162.443 259.157 165.389 260.643 166.151C261.498 166.589 262.392 165.99 263.032 165.379C263.889 164.559 264.474 163.474 264.978 162.37C265.394 161.46 265.781 160.538 266.204 159.633C266.402 159.21 267.087 158.015 266.743 157.538C268.234 157.24 269.895 157.86 271.179 158.673C271.71 159.009 272.115 159.38 272.398 159.973C272.458 160.101 272.59 160.479 272.756 160.494C273.065 160.523 272.95 160.146 272.919 159.966Z" fill="#2A3239"/>
<path fill-rule="evenodd" clip-rule="evenodd" d="M230.04 254.424C221.203 254.424 214.04 261.588 214.04 270.424V301.731C214.04 310.567 221.203 317.731 230.04 317.731H273.036C281.873 317.731 289.036 310.567 289.036 301.731V270.424C289.036 261.588 281.873 254.424 273.036 254.424H230.04ZM232.325 268.719C230.115 268.719 228.325 270.51 228.325 272.719V299.436C228.325 301.645 230.115 303.436 232.325 303.436H270.751C272.96 303.436 274.751 301.645 274.751 299.436V272.719C274.751 270.51 272.96 268.719 270.751 268.719H232.325Z" fill="#C5CFD6"/>
<path fill-rule="evenodd" clip-rule="evenodd" d="M339.625 315.178C329.566 302.886 322.761 293.774 319.207 287.841C313.123 277.681 308.144 268.642 306.573 265.188C302.825 256.954 315.199 253.098 318 256.939C322.238 262.752 331.29 281.045 345.156 311.817L339.625 315.178Z" fill="#B28B67"/>
<path fill-rule="evenodd" clip-rule="evenodd" d="M319.013 311.604L300.293 264.449C296.29 255.853 315.625 250.203 318.567 254.203C325.247 263.285 341.125 299.113 343.115 301.819L319.013 311.604Z" fill="#5B6D7E"/>
<path fill-rule="evenodd" clip-rule="evenodd" d="M269.156 302.148C272.803 296.825 286.066 278.917 293.291 271.507C295.367 269.378 297.392 267.334 299.308 265.43C305.003 259.769 316.343 269.284 310.659 274.44C296.503 287.28 275.849 304.614 274.123 306.159C271.704 308.325 266.864 305.493 269.156 302.148Z" fill="#B28B67"/>
<path fill-rule="evenodd" clip-rule="evenodd" d="M272.171 300.8C271.427 299.895 270.087 299.659 269.22 300.446C268.549 301.055 267.862 301.75 267.557 302.279C266.867 303.475 265.941 305.999 265.941 305.999C267.328 306.8 290.861 320.397 290.861 320.397C290.861 320.397 293.687 317.745 291.742 316.279C289.797 314.814 288.532 313.808 288.532 313.808L280.226 302.357C279.895 301.9 279.253 301.808 278.807 302.151L277.419 303.221C277.419 303.221 274.96 303.006 273.748 302.306C273.249 302.018 272.674 301.412 272.171 300.8Z" fill="#E4E4E4"/>
<path fill-rule="evenodd" clip-rule="evenodd" d="M337.7 313.175C336.603 312.763 335.324 313.229 334.967 314.344C334.69 315.208 334.442 316.153 334.442 316.764C334.442 318.145 334.902 320.794 334.902 320.794C336.503 320.794 363.677 320.794 363.677 320.794C363.677 320.794 364.799 317.083 362.382 316.787C359.965 316.492 358.367 316.253 358.367 316.253L345.453 310.492C344.939 310.262 344.336 310.503 344.121 311.024L343.454 312.645C343.454 312.645 341.216 313.69 339.818 313.69C339.241 313.69 338.441 313.453 337.7 313.175Z" fill="#E4E4E4"/>
<path fill-rule="evenodd" clip-rule="evenodd" d="M293.557 266.805C293.557 266.805 270.219 263 262.293 261.601C247.231 258.944 242.838 250.833 245.435 233.136L273.187 233.136C278.696 234.728 319.222 252.827 319.222 252.827C324.083 255.242 323.178 262.362 322.289 264.707C322.235 264.851 297.705 306.863 297.705 306.863L275.003 292.391L293.6 268.51C293.6 268.51 294.337 267.025 293.557 266.805Z" fill="#818E9B"/>
<path fill-rule="evenodd" clip-rule="evenodd" d="M219.344 255.398C220.839 252.363 228.309 213.3 228.309 213.3L239.481 213.342C239.481 213.342 226.718 254.721 225.931 256.673C224.908 259.209 226.645 262.892 227.823 265.39C228.005 265.777 228.174 266.135 228.317 266.456C226.683 267.187 225.898 266.303 225.07 265.371C224.136 264.318 223.147 263.203 220.819 264.287C219.919 264.706 219.068 265.201 218.237 265.685C215.364 267.355 212.726 268.89 209.136 266.674C208.567 266.323 207.943 265 209.45 263.966C213.204 261.39 218.613 256.882 219.344 255.398ZM313.433 240.177L298.981 226.069L294.181 234.38L309.209 243.247C312.978 249.187 315.191 251.754 315.849 250.947C316.404 250.266 316.149 249.521 315.915 248.834C315.733 248.299 315.562 247.799 315.796 247.394C316.33 246.47 319.348 246.999 322.19 247.624C325.031 248.249 324.374 246.853 323.77 246.123C321.084 243.954 317.638 241.972 313.433 240.177Z" fill="#B28B67"/>
<path fill-rule="evenodd" clip-rule="evenodd" d="M262.351 181.586L266.763 180.829C273.712 205.413 309.419 222.17 311.611 231.36C312.415 234.73 309.991 236.433 311.243 237.46L305.509 241.66C304.538 240.527 302.466 242.601 298.138 241.15C293.811 239.699 262.351 210.695 262.351 181.586Z" fill="#3AA099"/>
<path fill-rule="evenodd" clip-rule="evenodd" d="M256.459 176.591C254.256 176.437 252.344 178.098 252.19 180.302L252.118 181.339C243.815 187.733 223.238 206.838 217.876 242.404C217.313 246.14 218.331 248.141 219.145 249.74C219.702 250.834 220.163 251.74 219.956 252.884L227.461 254.957C227.461 254.112 228.406 253.469 229.627 252.64C231.401 251.435 233.755 249.835 234.626 246.647C235.451 243.625 236.66 239.85 238.103 235.651C238.24 241.212 239.294 246.327 241.589 250.563C247.317 261.132 280.419 249.541 283.877 238.76C285.722 233.006 283.104 228.176 279.641 221.788C275.224 213.64 269.433 202.958 269.777 184.594C269.793 184.485 269.806 184.375 269.813 184.263L270.003 181.548C270.157 179.344 268.496 177.433 266.292 177.279L256.459 176.591Z" fill="#4ECDC4"/>
<path fill-rule="evenodd" clip-rule="evenodd" d="M148.004 123.215C151.63 125.404 155.193 126.462 156.866 126.031C161.06 124.947 161.445 109.576 158.2 103.517C154.955 97.4567 138.273 94.8155 137.432 106.822C137.14 110.989 138.886 114.708 141.467 117.742L136.84 139.347H150.28L148.004 123.215Z" fill="#B28B67"/>
<path fill-rule="evenodd" clip-rule="evenodd" d="M148.676 108.148C149.838 106.414 150.954 105.091 152.406 104.323C158.315 104.416 159.006 103.355 159.006 99.7784C158.052 99.0943 154.685 97.9423 150.914 97.6183C148.99 97.0667 146.711 97.1705 144.516 98.0904C141.806 98.8608 139.511 100.52 138.498 103.626C134.831 109.966 137.614 116.566 141.365 118.82C142.363 117.635 143.235 116.486 144.012 115.387C143.388 114.776 143 113.923 143 112.979C143 111.12 144.504 109.613 146.36 109.613C146.496 109.613 146.631 109.621 146.763 109.637C146.846 111.961 147.19 119.825 148.093 122.557C149.157 125.777 155.367 126.568 157.532 126.568C159.403 126.568 159.339 124.793 159.294 123.521C159.287 123.338 159.281 123.165 159.281 123.01C159.281 122.685 158.859 122.686 158.382 122.687C157.764 122.688 157.052 122.689 157.052 121.978C157.052 121.203 158.122 120.608 159.079 120.076C159.676 119.743 160.23 119.436 160.452 119.124C161.154 118.139 161.391 116.811 160.332 116.811C159.753 116.811 158.958 117.146 158.003 117.548C156.56 118.155 154.75 118.917 152.758 118.917C149.468 118.917 148.685 108.28 148.676 108.148Z" fill="#191847"/>
<path fill-rule="evenodd" clip-rule="evenodd" d="M132.36 185.913L152.663 257.292L167.476 309.901H178.28L162.539 185.913H132.36Z" fill="#191847"/>
<path fill-rule="evenodd" clip-rule="evenodd" d="M126.93 185.913C126.461 222.702 124.859 242.768 124.366 246.111C123.873 249.453 116.418 270.717 102 309.901H113.193C131.547 272.31 141.793 251.047 143.931 246.111C146.068 241.175 152.665 221.109 162.6 185.913H126.93Z" fill="#2F3676"/>
<path fill-rule="evenodd" clip-rule="evenodd" d="M101 320L101.56 308.218L113.32 308.218C121.684 314.109 135.16 317.756 135.16 317.756V320H113.88L106.6 318.878V320H101Z" fill="#191847"/>
<path fill-rule="evenodd" clip-rule="evenodd" d="M165.96 320L166.52 308.218L178.28 308.218C186.644 314.109 200.12 317.756 200.12 317.756V320H178.84L171.56 318.878V320H165.96Z" fill="#191847"/>
<path fill-rule="evenodd" clip-rule="evenodd" d="M88.8841 206.27C90.9725 203.195 103.054 170.505 103.054 170.505L112.972 171.948C112.972 171.948 97.0021 206.661 95.8487 208.665C94.3504 211.268 95.6757 215.542 96.5744 218.441C96.7134 218.889 96.8422 219.305 96.9488 219.676C95.061 220.222 94.3429 219.139 93.5858 217.998C92.7306 216.709 91.8258 215.345 89.1298 216.168C88.0882 216.486 87.0875 216.895 86.1098 217.294C82.7326 218.673 79.6302 219.939 76.0669 216.978C75.5019 216.508 75.0261 214.973 76.8216 214.079C81.2951 211.85 87.8631 207.772 88.8841 206.27ZM196.505 191.076L179.601 176.718L174.981 186.197L192.115 194.764C196.696 200.987 199.316 203.631 199.974 202.696C200.53 201.908 200.194 201.11 199.885 200.375C199.645 199.802 199.42 199.268 199.645 198.806C200.159 197.751 203.504 198.1 206.663 198.567C209.823 199.035 208.996 197.554 208.279 196.801C205.172 194.629 201.247 192.721 196.505 191.076Z" fill="#B28B67"/>
<path fill-rule="evenodd" clip-rule="evenodd" d="M144.509 129.996L150.655 127.96C158.992 148.825 171.426 169.013 192.2 186.065L187.063 194.944C168.805 184.169 151.522 175.799 144.509 159.631C142.155 154.205 144.317 136.484 144.509 129.996Z" fill="#C5CFD6"/>
<path fill-rule="evenodd" clip-rule="evenodd" d="M123.4 188.718C123.4 188.718 149.808 191.524 164.972 188.718C166.225 188.487 166.422 186.386 165.841 184.96C156.796 162.756 150.594 143.382 150.594 127.96C148.104 129.217 141.88 128.337 141.88 128.337C130.728 144.23 125.602 162.465 123.4 188.718Z" fill="#323337"/>
<path fill-rule="evenodd" clip-rule="evenodd" d="M138.684 127.005C138.972 126.81 139.124 126.714 139.124 126.714L139.108 127.005H143.755C143.989 128.381 144.331 133.481 144.829 140.917C146.642 167.941 150.524 225.818 158.787 247.967H101.776C102.979 222.785 112.246 192.672 121.845 167.102C114.762 174.163 106.489 185.999 99.8026 205.702L89.1238 202.956C100.006 155.975 131.891 131.746 138.077 127.422C138.138 127.282 138.198 127.143 138.258 127.005H138.684Z" fill="#DDE3E9"/>
<path fill-rule="evenodd" clip-rule="evenodd" d="M792.591 154.669C789.607 156.468 786.675 157.337 785.299 156.982C781.848 156.093 781.531 143.469 784.201 138.492C786.871 133.515 800.597 131.346 801.289 141.207C801.529 144.629 800.092 147.683 797.969 150.175L801.776 167.919H790.718L792.591 154.669Z" fill="#B28B67"/>
<path fill-rule="evenodd" clip-rule="evenodd" d="M790.504 132.756C791.961 132.517 795.886 132.353 796.609 132.353C797.072 132.353 797.573 132.459 797.847 132.034C798.071 131.686 797.989 131.098 798.056 130.695C798.134 130.226 798.244 129.763 798.356 129.302C798.674 127.988 799.154 126.739 799.827 125.565C801.088 123.364 802.937 121.64 805.27 120.637C807.847 119.529 810.763 119.276 813.534 119.5C816.5 119.741 819.185 120.72 821.986 121.641C824.655 122.519 827.45 122.865 830.241 122.436C833.053 122.004 835.178 120.48 837.55 119.033C839.978 117.552 842.753 116.584 845.624 116.806C848.304 117.014 850.773 118.121 852.989 119.599C855.062 120.982 856.773 122.646 857.739 124.987C858.778 127.506 858.777 130.271 857.068 132.497C854.592 135.724 849.994 136.559 846.17 136.476C843.957 136.428 841.785 136.024 839.696 135.289C836.91 134.309 834.503 132.649 831.897 131.301C830.674 130.669 829.41 130.15 828.085 129.776C826.799 129.413 825.533 129.246 824.369 130.023C823.137 130.845 822.034 131.652 820.625 132.166C819.273 132.66 817.841 132.936 816.401 132.925C813.6 132.903 810.838 132.03 808.117 131.445C805.898 130.969 803.523 130.493 801.261 130.952C800.317 131.143 798.938 131.538 798.597 132.519C804.336 133.559 806.59 140.656 804.972 145.866C804.099 148.678 798.85 151.965 796.81 150.486C795.517 149.55 796.302 148.32 796.81 147.509C797.782 145.954 798.115 143.958 796.315 142.876C794.763 141.942 793.13 144.159 793.099 144.156C792.672 144.123 788.985 142.037 786.445 138.994C783.938 139.143 783.558 137.49 784.157 136.139C784.755 134.787 788.49 133.087 790.504 132.756Z" fill="#2A3239"/>
<path fill-rule="evenodd" clip-rule="evenodd" d="M809.133 206.827L791.82 263.538L783.433 311.767H776.857L785.719 206.827H809.133Z" fill="#997659"/>
<path fill-rule="evenodd" clip-rule="evenodd" d="M815.327 206.827C814.151 237.965 815.535 254.026 815.798 256.855C816.061 259.684 819.665 278.027 828.197 312.717L821.19 310.306C807.706 278.49 803.111 261.955 801.565 257.777C800.018 253.599 795.911 236.616 789.242 206.827H815.327Z" fill="#B28B67"/>
<path fill-rule="evenodd" clip-rule="evenodd" d="M825.776 310.195C826.88 309.8 828.162 310.26 828.507 311.38C828.73 312.102 828.916 312.857 828.916 313.361C828.916 314.608 828.502 317 828.502 317C827.058 317 802.553 317 802.553 317C802.553 317 801.541 313.65 803.72 313.382C805.9 313.115 807.341 312.9 807.341 312.9L818.894 307.74C819.409 307.51 820.012 307.751 820.226 308.272L820.79 309.642C820.79 309.642 822.807 310.585 824.069 310.585C824.537 310.585 825.168 310.412 825.776 310.195Z" fill="#E4E4E4"/>
<path fill-rule="evenodd" clip-rule="evenodd" d="M782.529 310.195C783.632 309.8 784.915 310.26 785.26 311.38C785.483 312.102 785.669 312.857 785.669 313.361C785.669 314.608 785.255 317 785.255 317C783.811 317 759.305 317 759.305 317C759.305 317 758.294 313.65 760.473 313.382C762.652 313.115 764.094 312.9 764.094 312.9L775.646 307.74C776.161 307.51 776.765 307.751 776.979 308.272L777.543 309.642C777.543 309.642 779.56 310.585 780.822 310.585C781.29 310.585 781.92 310.412 782.529 310.195Z" fill="#E4E4E4"/>
<path fill-rule="evenodd" clip-rule="evenodd" d="M811.433 206.827L804.072 235.721H781.588L784.941 206.827H811.433Z" fill="#69A1AC"/>
<path fill-rule="evenodd" clip-rule="evenodd" d="M815.574 206.827C819.207 217.739 816.954 235.721 816.954 235.721H794.01L787.701 206.827H815.574Z" fill="#89C5CC"/>
<path fill-rule="evenodd" clip-rule="evenodd" d="M840.61 221.36C838.892 218.84 827.314 184.93 827.314 184.93L817.328 186.372C817.328 186.372 833.93 221.683 834.879 223.325C836.111 225.459 835.02 228.963 834.28 231.34C834.165 231.708 834.059 232.048 833.972 232.353C835.525 232.8 836.116 231.912 836.739 230.977C837.443 229.92 838.187 228.801 840.405 229.476C841.262 229.736 842.086 230.071 842.89 230.398C845.668 231.527 848.221 232.565 851.153 230.136C851.618 229.751 852.01 228.493 850.532 227.76C846.852 225.934 841.449 222.592 840.61 221.36ZM754.554 219.608L765.71 205.205L771.045 212.016L758.716 221.815C756.091 227.588 754.433 230.156 753.744 229.519C753.162 228.982 753.296 228.285 753.419 227.642C753.515 227.142 753.605 226.675 753.345 226.343C752.752 225.585 750.119 226.437 747.656 227.352C745.193 228.267 745.606 226.938 746.055 226.212C748.185 223.939 751.018 221.738 754.554 219.608Z" fill="#B28B67"/>
<path fill-rule="evenodd" clip-rule="evenodd" d="M792.893 160.917L788.852 160.796C785.719 183.601 755.886 203.038 755.078 211.512C754.781 214.62 757.163 215.835 756.172 216.908L761.827 219.935C762.553 218.801 764.666 220.391 768.355 218.553C772.043 216.715 796.542 186.885 792.893 160.917Z" fill="#D45050"/>
<path fill-rule="evenodd" clip-rule="evenodd" d="M797.156 155.8C799.317 155.341 801.442 156.72 801.901 158.881L802.014 159.41C810.24 164.07 831.039 178.528 840.294 209.583C841.266 212.845 840.606 214.759 840.078 216.287C839.718 217.333 839.419 218.199 839.747 219.193L833.296 221.986C833.19 221.233 832.263 220.778 831.068 220.192C829.33 219.34 827.024 218.209 825.845 215.474C824.728 212.881 823.174 209.666 821.357 206.101C821.932 211.079 821.631 215.775 820.109 219.843C816.311 229.991 785.254 223.812 780.809 214.628C778.438 209.727 780.174 205.089 782.47 198.955C785.414 191.091 789.277 180.77 786.589 164.286C786.542 164.146 786.503 164.002 786.472 163.855L786.127 162.232C785.667 160.071 787.046 157.947 789.207 157.488L797.156 155.8Z" fill="#FF6B6B"/>
<path fill-rule="evenodd" clip-rule="evenodd" d="M879.735 180.163C884.852 180.163 889 184.311 889 189.428V197.36C889 202.001 885.587 205.845 881.134 206.52C881.132 206.558 881.13 206.596 881.128 206.634H869.187C867.156 204.642 869.451 191.129 870.882 186.651C871.061 186.09 871.236 185.669 871.407 185.365C872.912 182.285 876.076 180.163 879.735 180.163Z" fill="#2A3239"/>
<path fill-rule="evenodd" clip-rule="evenodd" d="M879.556 200.11C876.89 201.724 874.27 202.504 873.04 202.186C869.956 201.388 869.672 190.06 872.059 185.594C874.445 181.128 886.711 179.181 887.33 188.03C887.544 191.101 886.26 193.841 884.363 196.078L887.765 212H877.882L879.556 200.11Z" fill="#B28B67"/>
<path fill-rule="evenodd" clip-rule="evenodd" d="M888.637 188.081C888.35 187.796 888.073 187.521 887.797 187.274L887.81 186.953C887.81 186.953 884.709 180.577 879.941 180.577C875.177 180.577 873.67 182.801 872.389 184.691L872.386 184.696C873.056 187.004 875.075 187.938 877.358 188.994C878.341 189.449 879.373 189.926 880.367 190.545C880.756 190.227 881.253 190.037 881.794 190.037C883.045 190.037 884.059 191.055 884.059 192.311C884.059 193.567 883.045 194.585 881.794 194.585C881.76 194.585 881.725 194.584 881.691 194.583C881.236 199.494 881.418 205.102 882.775 206.434H894.716C895.059 200.453 893.518 198.747 891.944 197.004C890.463 195.364 888.952 193.69 888.952 188.392C888.845 188.288 888.741 188.184 888.637 188.081L888.637 188.081Z" fill="#2A3239"/>
<path fill-rule="evenodd" clip-rule="evenodd" d="M901.206 272.029C901.206 272.029 889.091 275.384 880.302 275.384C871.512 275.384 863.973 270.218 863.973 270.218C863.973 270.218 875.829 266.774 883.5 266.774C891.171 266.774 901.206 272.029 901.206 272.029Z" fill="#5C959B"/>
<path fill-rule="evenodd" clip-rule="evenodd" d="M873.31 278.608C873.388 278.492 873.454 278.366 873.506 278.229C874.585 275.403 891.877 244.908 893.6 239.333H874.132C872.822 243.572 866.927 270.173 866.097 275.48C863.48 283.852 858.09 310.965 857.402 312.843C856.678 314.819 860.751 316.878 861.836 314.448C863.563 310.583 867.677 299.888 869.509 293.358C871.227 287.236 872.625 281.728 873.31 278.608Z" fill="#997659"/>
<path fill-rule="evenodd" clip-rule="evenodd" d="M888 285.5C892.5 296.5 899 313 899.5 315.5C898 318 905 319.5 904 315C902.5 311.5 901 299 899 289.5C897.811 283.853 895 278.5 893.945 275.35C894.225 266.158 895.505 244.098 894.666 239.333H877.44C878.244 243.902 885.045 277.239 886.309 280.576C886.71 281.767 887 282 888 285.5Z" fill="#B28B67"/>
<path fill-rule="evenodd" clip-rule="evenodd" d="M902.42 315.326C903.559 315.033 904.862 315.452 905.144 316.596C905.225 316.923 905.28 317.229 905.28 317.462C905.281 318.373 904.981 320.118 904.981 320.118C903.935 320.116 886.175 320.068 886.175 320.068C886.175 320.068 885.44 317.62 887.02 317.429C888.599 317.239 889.643 317.084 889.643 317.084L897.75 313.456C898.266 313.225 898.872 313.469 899.087 313.994L899.388 314.731C899.388 314.731 900.851 315.424 901.765 315.426C901.955 315.427 902.181 315.388 902.42 315.326Z" fill="#E4E4E4"/>
<path fill-rule="evenodd" clip-rule="evenodd" d="M860.797 314.248C861.923 313.95 863.211 314.366 863.497 315.496C863.58 315.825 863.637 316.134 863.637 316.368C863.637 317.27 863.333 319 863.333 319C862.277 319 844.345 319 844.345 319C844.345 319 843.605 316.577 845.199 316.384C846.794 316.191 847.849 316.035 847.849 316.035L856.056 312.412C856.569 312.186 857.168 312.425 857.383 312.943L857.69 313.679C857.69 313.679 859.166 314.361 860.089 314.361C860.293 314.361 860.538 314.317 860.797 314.248Z" fill="#E4E4E4"/>
<path fill-rule="evenodd" clip-rule="evenodd" d="M894.61 239.333C894.61 239.333 883.224 236.108 873.063 239.333C870.707 249.979 864.98 254.205 863.973 270.526C875.42 276.158 889.56 266.51 901.343 272.002C904.71 264.32 899.997 245.822 894.61 239.333Z" fill="#89C5CC"/>
<path fill-rule="evenodd" clip-rule="evenodd" d="M848.661 224.308L861.953 226.104L859.569 232L848.783 227.766C844.134 228.22 841.886 228.111 842.039 227.438C842.168 226.871 842.662 226.7 843.117 226.542C843.472 226.419 843.802 226.304 843.919 226.017C844.184 225.361 842.673 224.001 841.183 222.772C839.694 221.542 840.694 221.316 841.322 221.334C843.556 221.853 846.002 222.844 848.661 224.308ZM913.329 256.636C912.343 254.654 903.71 229.15 903.71 229.15L896.338 229.177C896.338 229.177 908.464 256.194 908.983 257.468C909.658 259.124 908.512 261.529 907.735 263.16C907.614 263.412 907.503 263.646 907.409 263.856C908.487 264.333 909.005 263.756 909.551 263.147C910.168 262.46 910.82 261.732 912.356 262.44C912.95 262.713 913.512 263.036 914.06 263.352C915.956 264.443 917.697 265.445 920.066 263.998C920.441 263.769 920.853 262.905 919.859 262.23C917.381 260.548 913.812 257.605 913.329 256.636Z" fill="#997659"/>
<path fill-rule="evenodd" clip-rule="evenodd" d="M883.517 206L877.745 206.381C876.323 219.114 868.58 227.158 851.244 224.435L848.94 240.833C865.144 242.906 879.355 236.483 882.267 219.093C883.021 214.591 883.616 209.906 883.517 206Z" fill="#AFB9C5"/>
<path fill-rule="evenodd" clip-rule="evenodd" d="M912.318 253.333C908.311 232.221 899.852 215.888 886.942 204.333H886.388H886.369L886.365 204.339L877.619 206.322C877.619 216.723 875.282 224.495 873.035 231.967C872.065 235.193 871.111 238.364 870.37 241.667H893.989C894.322 245.45 894.526 249.339 894.633 253.333H912.318Z" fill="#C5CFD6"/>
<path fill-rule="evenodd" clip-rule="evenodd" d="M893.989 241.667C893.312 233.963 892.102 226.696 890.103 219.866C890.541 227.17 890.663 236.232 889.189 241.667H893.989Z" fill="black" fill-opacity="0.1"/>
</g>
<defs>
<clipPath id="clip0">
<rect width="206" height="205" fill="white" transform="translate(113 45)"/>
</clipPath>
<clipPath id="clip1">
<rect width="43.0448" height="114.942" fill="white" transform="translate(266.116 123.208)"/>
</clipPath>
<clipPath id="clip2">
<rect width="7" height="158" fill="white" transform="translate(284.116 141.208)"/>
</clipPath>
<clipPath id="clip3">
<rect width="96" height="47" fill="white" transform="translate(129 89)"/>
</clipPath>
<clipPath id="clip4">
<rect width="38" height="18.8" fill="white" transform="translate(138 103.1)"/>
</clipPath>
<clipPath id="clip5">
<rect width="96" height="39" fill="white" transform="translate(129 144)"/>
</clipPath>
<clipPath id="clip6">
<rect width="38" height="15.6" fill="white" transform="translate(138 155.7)"/>
</clipPath>
<clipPath id="clip7">
<rect width="96" height="39" fill="white" transform="translate(129 191)"/>
</clipPath>
<clipPath id="clip8">
<rect width="38" height="15.6" fill="white" transform="translate(138 202.7)"/>
</clipPath>
<clipPath id="clip9">
<rect width="96" height="39" fill="white" transform="translate(129 238)"/>
</clipPath>
<clipPath id="clip10">
<rect width="38" height="15.6" fill="white" transform="translate(138 249.7)"/>
</clipPath>
</defs>
</svg>
