<svg width="1024" height="276" viewBox="0 0 1024 276" fill="none" xmlns="http://www.w3.org/2000/svg">
<rect y="-5" width="1024" height="281" fill="#ABC3DB"/>
<g clip-path="url(#clip0)">
<path d="M987.104 103.236C980.921 106.566 978.59 114.24 981.896 120.38C985.203 126.52 992.894 128.797 999.077 125.467C1005.26 122.137 1007.59 114.462 1004.28 108.323C1000.98 102.183 993.287 99.9059 987.104 103.236ZM969.145 69.8892C975.328 66.5593 977.66 58.8846 974.353 52.745C971.047 46.6054 963.356 44.3283 957.173 47.6581C950.99 50.988 948.658 58.6627 951.965 64.8023C955.271 70.9419 962.962 73.2191 969.145 69.8892ZM1007.22 60.14L940.053 96.3117C936.962 97.9762 935.796 101.815 937.449 104.884L940.442 110.442C942.095 113.51 945.941 114.649 949.032 112.985L1016.2 76.8133C1019.29 75.1488 1020.45 71.3101 1018.8 68.2412L1015.81 62.6834C1014.15 59.6145 1010.31 58.4755 1007.22 60.14Z" fill="#546270"/>
</g>
<mask id="mask0" mask-type="alpha" maskUnits="userSpaceOnUse" x="0" y="0" width="1024" height="275">
<rect width="1024" height="275" fill="#C4C4C4"/>
</mask>
<g mask="url(#mask0)">
<path opacity="0.2" fill-rule="evenodd" clip-rule="evenodd" d="M218.649 152.426C216.469 148.936 211.005 147.942 207.291 147.655C205.861 147.544 202.065 147.557 198.983 148.131C199.828 147.127 200.644 146.097 201.43 145.042C204.662 140.702 207.634 136.13 210.244 131.422C210.925 130.194 211.482 128.726 212.047 127.239L212.047 127.238C212.238 126.735 212.43 126.229 212.628 125.73C212.808 125.675 212.968 125.556 213.105 125.359C213.076 125.454 213.05 125.529 213.03 125.586C212.998 125.677 212.982 125.724 212.996 125.736C213.011 125.749 213.057 125.725 213.152 125.676C213.188 125.658 213.232 125.636 213.283 125.611C216.997 123.763 220.514 121.368 222.498 117.851C224.18 114.868 223.925 107.61 217.757 109.656C214.999 110.568 209.519 123.493 212.017 125.616C209.271 129.463 206.333 133.21 203.176 136.79C203.008 136.678 202.825 136.589 202.633 136.525C203.135 135.502 203.667 134.378 203.799 133.968C204.938 130.435 204.826 122.124 198.96 120.973C194.453 120.089 194.968 125.404 195.485 127.866C196.316 131.831 198.217 134.272 200.665 137.28C200.432 137.939 200.741 138.53 201.252 138.915C195.981 144.615 190.123 149.838 183.577 154.295L183.664 153.858L183.664 153.857C184.083 151.768 184.571 149.332 184.446 148.713C183.79 145.476 181.216 140.689 176.903 140.397C167.842 139.789 172.111 152.272 178.19 156.265C178.312 156.709 178.479 157.097 178.715 157.386C176.572 158.654 174.36 159.841 172.076 160.937C168.647 162.589 165.059 164.156 161.365 165.654C162.265 163.548 163.469 158.478 163.428 157.853C163.175 154.057 159.816 148.697 154.901 149.001C149.371 149.35 151.21 155.779 152.746 159.018C153.375 160.347 156.998 165.832 158.784 166.688C149.933 170.155 140.519 173.226 131.1 176.025C132.896 173.636 137.046 166.682 137.347 165.835C138.902 161.465 138.796 153.257 131.625 151.878C124.669 150.537 124.15 158.768 124.72 163.075C125.065 165.683 125.889 168.554 127.38 170.959C127.649 171.392 128.058 171.835 128.466 172.277C128.958 172.81 129.45 173.342 129.693 173.855C129.91 174.313 129.861 174.698 129.812 175.08C129.761 175.483 129.711 175.883 129.974 176.361C124.89 177.859 119.812 179.28 114.827 180.638C112.475 181.28 110.105 181.879 107.726 182.453C106.938 181.678 105.386 181.481 104.924 182.644C104.857 182.812 104.835 182.975 104.835 183.133C103.042 183.547 101.245 183.949 99.4426 184.336C99.6113 184.056 99.7978 183.637 100.006 183.036C100.422 184.632 101.169 182.941 101.738 181.653C101.94 181.197 102.119 180.792 102.253 180.6C102.779 179.847 103.342 179.121 103.905 178.397L103.905 178.396C105.107 176.849 106.305 175.306 107.126 173.512C108.868 169.703 109.017 162.017 101.975 161.466C95.5015 160.955 94.8582 167.51 95.2748 172.005C95.539 174.849 96.3991 177.682 97.3803 180.469C97.5552 180.966 97.7101 181.601 97.8635 182.229C98.0912 183.162 98.3155 184.081 98.5966 184.517C91.672 185.984 84.6807 187.282 77.689 188.58C74.5571 189.161 71.4252 189.743 68.2992 190.339C68.3723 189.921 68.4618 189.513 68.5516 189.135C68.632 189.343 68.7996 189.501 69.06 189.607C69.2617 189.355 69.5377 189.023 69.8693 188.624C73.9172 183.758 86.2465 168.938 72.8391 166.637C63.0127 164.958 62.2307 182.537 66.2951 190.723C61.0085 191.745 55.7418 192.822 50.5255 194.029C46.7511 194.902 43.023 195.887 39.3616 196.995C42.1036 194.622 45.1844 191.33 45.8156 187.855C46.7335 182.797 43.1176 175.918 36.4324 175.902C28.0919 175.896 31.2898 182.737 34.2886 189.152C35.8198 192.428 37.2991 195.593 37.1639 197.678C25.4142 201.435 14.4632 206.595 5.27526 214.017C-4.71694 222.087 -16.0366 233.92 -18.938 246.836C-16.9981 241.469 -11.9026 235.978 -8.32412 232.123C-7.83683 231.598 -7.37767 231.103 -6.95844 230.643C-1.47825 224.629 4.82516 219.235 11.9019 214.738C23.2368 207.537 35.9299 202.865 49.5733 199.619C51.5195 201.345 53.3936 203.729 54.9457 205.703L54.9458 205.703C55.8978 206.914 56.7287 207.97 57.3808 208.627C60.5257 211.793 66.881 217.199 71.3515 213.976C75.7473 210.807 70.8058 205.56 67.4964 202.833C64.2974 200.199 60.9674 198.772 57.2184 197.94C64.3217 196.472 71.4944 195.189 78.6658 193.906L78.6679 193.905C79.987 193.669 81.3061 193.433 82.6246 193.196C83.546 194.785 84.4115 196.864 85.3306 199.07C88.2474 206.074 91.703 214.37 99.19 212.433C110.489 209.509 98.1725 195.362 91.2995 192.788C90.4561 192.471 89.6015 192.247 88.742 192.084C97.7741 190.411 106.749 188.59 115.526 186.252C116.573 186.955 117.709 189.201 119.073 191.899C122.139 197.963 126.36 206.311 133.321 204.567C138.345 203.308 139.275 198.109 137.009 193.823C134.735 189.519 129.626 187.126 124.865 185.981C122.808 185.483 120.732 185.404 118.698 185.539L118.593 185.496L118.493 185.454C127.156 183.098 135.913 180.642 144.527 177.895L144.643 177.994C144.697 178.039 144.751 178.085 144.805 178.132C144.991 178.677 145.533 179.099 146.128 179.277C146.393 179.51 146.663 179.748 146.938 179.991C151.035 183.606 156.3 188.252 161.394 189.706C165.144 190.777 169.431 189.868 167.869 185.538C166.6 182.016 159.934 179.307 156.495 178.385C154.817 177.935 152.754 177.948 150.684 177.96C149.814 177.965 148.943 177.97 148.099 177.941C148.063 177.544 147.838 177.195 147.521 176.929C156.072 174.119 164.444 170.988 172.408 167.36C173.863 168.291 175.312 169.674 176.807 171.101C180.403 174.533 184.262 178.217 189.104 176.459C196.254 173.863 188.465 166.731 183.907 165.157C182.369 164.625 180.759 164.297 179.146 164.106C185.213 160.888 190.56 156.915 195.186 152.277C195.201 152.295 195.215 152.311 195.229 152.328L195.229 152.328L195.229 152.329C195.251 152.355 195.273 152.382 195.302 152.411C195.278 152.383 195.258 152.356 195.239 152.329C195.224 152.309 195.209 152.29 195.193 152.27C195.656 151.805 196.111 151.335 196.558 150.858C196.972 150.858 197.344 150.889 197.519 150.912C195.006 151.135 203.06 155.602 204.568 156.439C207.902 158.288 212.475 160.541 216.124 159.344C219.188 158.337 220.457 155.321 218.649 152.426ZM-19.2367 246.132C-19.8187 247.766 -20.0369 249.404 -19.6963 250.99C-19.7218 249.348 -19.5581 247.727 -19.2367 246.132Z" fill="#070C0D"/>
<path opacity="0.2" fill-rule="evenodd" clip-rule="evenodd" d="M716.95 138.003C715.163 141.71 717.24 146.86 718.979 150.154C719.65 151.422 721.688 154.625 723.818 156.924C722.519 156.746 721.212 156.606 719.9 156.505C714.505 156.089 709.052 156.017 703.677 156.324C702.275 156.404 700.737 156.716 699.178 157.033L699.178 157.033C698.65 157.14 698.12 157.248 697.592 157.347C697.449 157.224 697.264 157.152 697.024 157.142C697.119 157.116 697.197 157.098 697.256 157.084C697.35 157.062 697.398 157.051 697.401 157.033C697.404 157.014 697.359 156.987 697.267 156.933C697.232 156.912 697.19 156.887 697.141 156.857C693.596 154.703 689.693 153.008 685.661 153.209C682.24 153.379 676.24 157.47 681.262 161.592C683.506 163.437 697.361 161.17 697.822 157.925C702.54 158.192 707.278 158.676 711.99 159.434C711.985 159.636 712.008 159.838 712.056 160.035C710.923 160.156 709.689 160.307 709.272 160.414C705.676 161.337 698.709 165.87 700.868 171.443C702.527 175.727 706.745 172.453 708.552 170.702C711.46 167.883 712.509 164.971 713.745 161.296C714.427 161.141 714.762 160.564 714.815 159.926C722.448 161.339 729.992 163.504 737.256 166.66L736.839 166.819L736.839 166.82C734.849 167.581 732.528 168.469 732.072 168.905C729.685 171.189 727.012 175.92 729.068 179.723C733.391 187.709 741.666 177.435 741.798 170.163C742.108 169.823 742.347 169.474 742.466 169.12C744.681 170.256 746.866 171.491 749.012 172.838C752.24 174.856 755.481 177.053 758.719 179.376C756.458 179.74 751.528 181.428 751.022 181.797C747.948 184.038 745.208 189.739 748.09 193.732C751.337 198.223 755.791 193.235 757.711 190.207C758.498 188.966 761.202 182.973 760.971 181.006C768.628 186.639 776.252 192.959 783.648 199.429C780.668 199.186 772.572 199.39 771.696 199.588C767.171 200.606 760.288 205.078 762.95 211.878C765.53 218.475 772.767 214.519 776.105 211.738C778.124 210.054 780.112 207.824 781.35 205.28C781.573 204.821 781.729 204.239 781.885 203.657C782.073 202.956 782.26 202.257 782.564 201.777C782.835 201.35 783.187 201.185 783.536 201.022C783.904 200.85 784.269 200.68 784.532 200.202C788.514 203.701 792.426 207.235 796.236 210.725C798.035 212.372 799.807 214.056 801.562 215.761C801.328 216.841 801.99 218.259 803.219 218.028C803.398 217.995 803.547 217.926 803.681 217.842C804.988 219.137 806.288 220.442 807.577 221.76C807.25 221.766 806.796 221.832 806.176 221.977C807.305 220.774 805.476 221.044 804.082 221.251C803.59 221.324 803.152 221.389 802.917 221.378C802 221.335 801.085 221.246 800.172 221.157L800.172 221.157C798.222 220.968 796.278 220.778 794.322 221.042C790.172 221.602 783.594 225.58 786.887 231.829C789.912 237.575 795.798 234.619 799.376 231.867C801.64 230.125 803.576 227.885 805.408 225.568C805.735 225.155 806.189 224.685 806.639 224.219C807.306 223.529 807.964 222.848 808.181 222.378C813.119 227.45 817.949 232.668 822.78 237.887C824.944 240.225 827.107 242.563 829.281 244.887C828.888 245.049 828.496 245.191 828.128 245.317C828.261 245.138 828.305 244.912 828.256 244.635C827.935 244.599 827.507 244.543 826.993 244.475C820.717 243.65 801.603 241.139 806.816 253.703C810.643 262.908 825.923 254.184 830.675 246.377C834.362 250.301 838.085 254.179 841.89 257.946C844.643 260.671 847.467 263.297 850.358 265.802C846.888 264.75 842.459 263.903 839.184 265.225C834.418 267.149 830.532 273.879 834.087 279.54C838.535 286.596 842.612 280.239 846.436 274.278C848.388 271.235 850.274 268.294 852.11 267.295C861.559 275.224 871.77 281.728 882.95 285.535C895.109 289.675 911.158 292.928 923.628 288.485C918.054 289.711 910.691 288.334 905.52 287.367C904.816 287.235 904.153 287.111 903.54 287.002C895.53 285.579 887.603 283.129 880.022 279.546C867.881 273.807 857.154 265.569 847.125 255.766C847.545 253.199 848.56 250.342 849.401 247.975L849.401 247.975C849.916 246.524 850.366 245.257 850.573 244.355C851.571 240.005 852.749 231.746 847.637 229.686C842.61 227.662 840.812 234.641 840.273 238.895C839.754 243.007 840.326 246.584 841.623 250.198C836.59 244.976 831.675 239.596 826.762 234.218L826.76 234.216C825.856 233.227 824.952 232.237 824.048 231.249C824.9 229.622 826.195 227.78 827.57 225.825C831.934 219.619 837.105 212.268 831.469 206.972C822.964 198.98 817.578 216.947 819.071 224.132C819.254 225.014 819.52 225.857 819.841 226.671C813.605 219.927 807.273 213.311 800.609 207.137C800.646 205.877 801.938 203.717 803.491 201.123C806.981 195.293 811.786 187.267 806.595 182.313C802.848 178.736 797.956 180.725 795.541 184.93C793.117 189.151 793.821 194.749 795.394 199.386C796.072 201.39 797.113 203.188 798.313 204.836L798.333 204.947L798.351 205.054C791.734 198.987 784.981 192.895 778.059 187.078L778.081 186.926C778.091 186.857 778.101 186.787 778.111 186.716C778.473 186.268 778.541 185.584 778.374 184.986C778.429 184.638 778.486 184.282 778.545 183.92C779.414 178.526 780.531 171.594 779.041 166.51C777.944 162.768 774.887 159.628 772.059 163.26C769.759 166.214 771.027 173.297 772.084 176.696C772.6 178.355 773.712 180.093 774.827 181.837C775.296 182.57 775.765 183.304 776.191 184.033C775.875 184.275 775.7 184.651 775.644 185.062C768.703 179.332 761.586 173.925 754.266 169.128C754.276 167.4 754.672 165.437 755.08 163.412C756.063 158.538 757.117 153.308 753.045 150.152C747.033 145.494 745.161 155.887 746.263 160.581C746.635 162.166 747.218 163.702 747.917 165.169C741.957 161.756 735.743 159.357 729.351 157.921C729.358 157.899 729.365 157.878 729.372 157.858L729.372 157.857L729.372 157.857C729.382 157.825 729.393 157.792 729.403 157.752C729.392 157.787 729.379 157.818 729.367 157.849C729.358 157.872 729.349 157.895 729.341 157.919C728.701 157.776 728.06 157.642 727.419 157.518C727.197 157.169 727.025 156.837 726.951 156.678C728.481 158.683 727.959 149.488 727.861 147.766C727.644 143.96 727.108 138.89 724.147 136.445C721.66 134.391 718.432 134.928 716.95 138.003ZM923.193 289.114C924.885 288.734 926.386 288.044 927.545 286.909C926.17 287.807 924.713 288.534 923.193 289.114Z" fill="#070C0D"/>
<path fill-rule="evenodd" clip-rule="evenodd" d="M381.633 264.558C378.65 254.607 371.646 246.818 364.374 239.682C350.22 225.789 342.607 217.199 337.562 196.876C334.595 184.924 331.575 172.258 322.165 163.587C315.313 157.272 303.521 151.967 294.357 156.489C280.261 164.903 276.475 182.169 277.896 197.631C279.659 216.794 288.61 228.61 305.807 235.669C315.497 239.644 321.938 244.889 327.198 254.029C331.405 261.338 333.858 270.49 339.145 277.115C347.05 287.019 356.941 291.422 369.134 289.777C357.714 268.766 344.371 247.557 328.278 229.866C326.771 228.087 317.886 221.28 319.678 218.249C321.652 214.911 330.774 227.448 330.709 227.373C335.386 232.741 339.714 238.446 343.963 244.206C343.953 244.211 343.94 244.214 343.928 244.22C348.304 250.13 352.644 256.128 356.902 262.2C358.624 264.769 360.3 267.37 361.905 270.037C364.259 273.95 367.996 285.055 371.849 287.462C372.673 287.976 373.436 288.264 374.148 288.382C376.777 292.687 379.335 297.025 381.768 301.416C388.121 312.882 393.574 324.988 396.076 337.933C396.807 341.711 396.29 355.845 398.869 358.572C403.584 363.561 402.203 353.954 401.921 351.054C399.579 327.041 390.958 306.582 378.441 286.394C382.286 281.372 382.841 268.59 381.633 264.558Z" fill="#F2F2F2"/>
<path fill-rule="evenodd" clip-rule="evenodd" d="M220.131 276.161C225.102 270.304 237.052 269.31 244.361 269.702C253.404 270.187 262.694 272.389 271.298 275.051C285.471 279.435 299.244 287.437 311.727 295.182C313.231 296.115 331.764 307.26 330.124 309.216C328.498 311.154 310.305 297.915 306.25 295.633C297.597 290.763 289.662 285.003 280.124 281.786C270.249 278.455 259.805 277.136 249.42 277.227C248.087 277.239 243.74 276.31 243.646 278.282C243.554 280.21 250.747 279.204 252.016 279.216C257.255 279.264 262.527 279.757 267.691 280.665C277.368 282.366 286.465 285.792 294.753 291.048C292.44 296.425 286.897 298.904 281.081 297.558C276.055 296.395 271.156 293.526 266.234 292.697C262.845 292.126 259.451 292.466 256.164 293.421C247.494 295.94 242.494 301.102 232.961 297.511C225.489 294.697 212.991 284.584 220.131 276.161Z" fill="#F2F2F2"/>
<path fill-rule="evenodd" clip-rule="evenodd" d="M198.753 181.782C187.714 180.977 175.388 189.787 170.063 198.954C165.771 206.346 166.494 216.052 169.145 223.904C170.921 229.162 174.795 236.657 181.257 236.73C189.341 236.822 189.73 226.938 189.887 221.159C190.095 213.477 191.076 206.785 197.195 201.549C197.95 200.902 198.743 200.297 199.536 199.692C200.239 199.155 200.943 198.618 201.62 198.053C201.728 197.962 201.837 197.872 201.946 197.781C204.11 195.982 206.382 194.092 206.659 191.127C207.06 186.83 204.608 186.056 200.864 186.855C200.743 186.88 200.415 187.003 199.969 187.171C198.057 187.888 193.977 189.418 194.749 187.589C195.039 186.9 196.101 186.353 197.441 185.944C200.907 185.571 205.042 185.139 206.231 185.397C219.058 188.181 224.052 205.759 225.378 216.927C225.529 218.191 225.649 219.46 225.753 220.731H228.105C227.94 217.746 227.725 214.767 227.221 211.815C225.331 200.753 219.419 184.506 206.455 182.71C205.977 182.643 204.217 182.632 202.086 182.756C201.076 182.198 199.945 181.86 198.753 181.782Z" fill="#F2F2F2"/>
<circle cx="915" cy="234" r="82" fill="#FDF6C3" fill-opacity="0.6"/>
<circle cx="115.5" cy="36.5" r="63.5" fill="#FDF6C3" fill-opacity="0.6"/>
<g opacity="0.5">
<path fill-rule="evenodd" clip-rule="evenodd" d="M682.23 77.3418C674.984 78.3702 658.546 83.0801 652.94 80.2264C649.329 78.3884 660.501 69.448 662.454 67.5544C670.011 60.2272 678.344 53.8273 686.825 47.6177C702.121 36.4171 719.449 30.4008 738.129 26.9137C747.74 25.1196 758.047 23.921 767.642 26.6436C772.06 27.896 775.585 31.0798 779.729 32.5205C784.556 34.1992 781.47 33.7133 786.305 31.979C793.018 29.5716 799.801 24.4604 805.795 20.6426C833.309 3.11737 966.977 -102.106 989.056 -126.242C991.013 -128.381 994.272 -125.912 991.834 -123.352C978.907 -109.782 878.001 -27.9654 843.879 -2.40811C809.757 23.1492 779.202 45.2899 765.263 51.8529C748.352 59.8155 725.644 66.8593 707.63 71.8898C699.262 74.2274 690.841 76.1198 682.23 77.3418Z" fill="#69A1AC"/>
<path fill-rule="evenodd" clip-rule="evenodd" d="M899.521 115.404C896.212 110.12 899.481 93.3595 899.883 86.0726C900.36 77.413 901.519 68.877 903.124 60.3508C906.577 41.9971 911.522 23.8439 917.978 6.29989C928.502 -22.3007 941.413 -49.4091 957.619 -75.4848C967.54 -91.4466 979.117 -106.608 991.476 -120.742C993.807 -123.408 1011.11 -144.672 1015.28 -141.287C1019.04 -138.244 1002.49 -124.773 1000.53 -122.625C978.474 -98.3918 960.621 -70.9583 945.584 -41.9724C942.308 -35.6584 937.817 -28.4363 936.002 -21.5447C934.694 -16.5812 933.948 -19.5951 936.026 -14.97C937.809 -10.9981 941.268 -7.80959 942.887 -3.54891C946.407 5.70545 946.097 16.0444 945.138 25.7519C943.273 44.6171 938.783 62.387 928.977 78.641C923.541 87.6544 917.904 96.5386 911.28 104.742C909.568 106.862 901.653 118.808 899.521 115.404Z" fill="#69A1AC"/>
<path fill-rule="evenodd" clip-rule="evenodd" d="M714.905 255.208C728.327 211.059 747.431 167.219 771.534 127.891C786.138 104.063 802.779 81.3792 819.296 58.8565C844.872 23.9831 870.741 -10.5731 900.851 -41.7092C931.136 -73.0262 964.85 -110.445 1005.18 -128.691C969.257 -104.802 940.831 -68.8994 910.402 -38.7597C895.875 -24.3711 882.239 -9.32488 868.898 6.15439C855.957 21.1707 844 37.101 831.926 52.8162C826.046 60.47 820.23 68.1715 814.438 75.8912C812.711 78.1946 806.713 84.1003 806.529 86.7373C806.343 89.3915 812.077 96.6769 813.015 99.7715C814.903 106.004 815.67 112.811 815.836 119.315C816.154 131.784 813.789 145.106 810.368 157.076C802.453 184.772 784.489 209.704 763.398 229.046C759.303 232.801 709.526 267.175 711.378 270.357C711.045 270.372 710.715 270.402 710.385 270.447C711.848 265.354 713.368 260.278 714.905 255.208Z" fill="#89C5CC"/>
<path fill-rule="evenodd" clip-rule="evenodd" d="M650.083 -24.9304C649.466 -24.8393 645.279 -24.0902 646.243 -23.3953C644.282 -24.8102 651.346 -23.7022 645.334 -26.1734C649.188 -25.9366 650.595 -29.4739 653.174 -31.9407C657.362 -35.946 662.219 -39.1665 667.104 -42.2456C674.824 -47.1131 682.941 -51.1945 691.574 -54.1709C710.389 -60.6564 732.587 -62.5378 752.076 -58.3428C761.697 -56.2724 768.509 -51.7918 776.698 -46.8235C781.871 -43.6855 784.387 -45.4084 790.628 -47.0157C803.624 -50.3652 816.512 -53.7695 829.278 -57.9457C844.523 -62.9326 859.644 -68.0751 874.685 -73.6541C925.351 -92.445 974.666 -115.303 1019.77 -145.294C996.941 -123.615 968.297 -106.768 940.115 -92.9626C919.584 -82.9032 898.246 -74.8563 876.668 -67.3787C871.44 -65.5676 864.363 -63.6143 859.636 -60.4982C856.325 -58.3146 854.98 -54.2507 852.614 -50.7516C843.406 -37.1225 830.113 -25.0322 816.151 -16.3532C800.756 -6.78266 787.74 -8.60947 774.073 -19.5199C769.074 -23.51 763.822 -29.6125 757.885 -32.0039C751.418 -34.6103 742.585 -29.9115 735.601 -28.2974C716.843 -23.961 697.34 -21.417 678.09 -21.4408C672.76 -21.4472 667.461 -21.8601 662.191 -22.6265C658.866 -23.1091 653.191 -25.3903 650.083 -24.9304Z" fill="#89C5CC"/>
</g>
<path d="M234.054 45.0092L250.508 28.5554C250.978 28.093 251.352 27.5422 251.608 26.9346C251.864 26.3271 251.997 25.6748 252 25.0155C252.003 24.3562 251.875 23.7029 251.624 23.0932C251.373 22.4835 251.004 21.9296 250.538 21.4633C250.071 20.997 249.518 20.6277 248.908 20.3765C248.298 20.1254 247.645 19.9974 246.986 20C246.326 20.0026 245.674 20.1358 245.066 20.3917C244.459 20.6477 243.908 21.0214 243.445 21.4913L226.992 37.9452L210.538 21.493C210.074 21.0292 209.523 20.6612 208.917 20.4102C208.311 20.1592 207.662 20.03 207.006 20.03C206.35 20.03 205.7 20.1592 205.094 20.4102C204.488 20.6612 203.938 21.0292 203.474 21.493C202.537 22.4297 202.011 23.7002 202.011 25.025C202.011 26.3498 202.537 27.6203 203.474 28.557L219.928 45.0092L203.434 61.503C202.51 62.4423 201.995 63.7087 202 65.0263C202.006 66.3439 202.532 67.606 203.463 68.5375C204.395 69.4691 205.657 69.9948 206.975 70C208.292 70.0052 209.559 69.4895 210.498 68.5653L226.99 52.0732L243.442 68.5254C244.418 69.501 245.696 69.9888 246.973 69.9888C248.25 69.9888 249.529 69.501 250.504 68.5254C250.969 68.0618 251.337 67.5114 251.588 66.9055C251.839 66.2996 251.968 65.6501 251.968 64.9942C251.968 64.3383 251.839 63.6889 251.588 63.083C251.337 62.477 250.969 61.9266 250.504 61.463L234.054 45.0092Z" fill="#546270"/>
</g>
<defs>
<clipPath id="clip0">
<rect width="89" height="101" fill="white" transform="translate(915 63.2004) rotate(-28.3048)"/>
</clipPath>
</defs>
</svg>
