<svg width="1024" height="276" viewBox="0 0 1024 276" fill="none" xmlns="http://www.w3.org/2000/svg">
<mask id="mask0" mask-type="alpha" maskUnits="userSpaceOnUse" x="0" y="0" width="1024" height="276">
<rect width="1024" height="276" fill="#C4C4C4"/>
</mask>
<g mask="url(#mask0)">
<rect y="-5" width="1024" height="281" fill="#F5A571"/>
<circle cx="154" cy="23" r="82" fill="#FDF6C3" fill-opacity="0.6"/>
<path d="M897.591 95.4956L902.977 101.854C904.957 104.192 908.477 104.476 910.825 102.488L927.853 88.0638C930.201 86.0751 933.72 86.3591 935.701 88.697C937.681 91.0349 937.382 94.5534 935.034 96.5421L918.007 110.966C915.659 112.954 915.36 116.473 917.34 118.811L922.727 125.17C924.707 127.507 928.227 127.791 930.574 125.803L947.602 111.379C958.166 102.431 959.511 86.5956 950.6 76.0762C941.689 65.5568 925.849 64.2787 915.285 73.2268L898.257 87.6506C895.909 89.6392 895.611 93.1578 897.591 95.4956ZM907.234 98.2484L901.848 91.8897L908.233 86.4808L913.62 92.8395L907.234 98.2484ZM926.984 121.564L921.597 115.205L927.983 109.796L933.369 116.155L926.984 121.564ZM946.343 79.6821C953.272 87.8615 952.225 100.182 944.011 107.14L937.626 112.549L932.24 106.19L938.625 100.781C943.321 96.8038 943.918 89.7668 939.958 85.091C935.997 80.4153 928.957 79.8473 924.262 83.8247L917.877 89.2336L912.49 82.8749L918.876 77.466C927.09 70.5083 939.415 71.5027 946.343 79.6821Z" fill="#546270"/>
<circle cx="929.5" cy="251.5" r="63.5" fill="#FDF6C3" fill-opacity="0.6"/>
<path opacity="0.2" fill-rule="evenodd" clip-rule="evenodd" d="M264.649 157.426C262.469 153.936 257.005 152.942 253.291 152.655C251.861 152.544 248.065 152.557 244.983 153.131C245.828 152.127 246.644 151.097 247.43 150.042C250.662 145.702 253.634 141.13 256.244 136.422C256.925 135.194 257.482 133.726 258.047 132.239L258.047 132.238C258.238 131.735 258.43 131.229 258.628 130.73C258.808 130.675 258.968 130.556 259.105 130.359C259.076 130.454 259.05 130.529 259.03 130.586C258.998 130.677 258.982 130.724 258.996 130.736C259.011 130.749 259.057 130.725 259.152 130.676C259.188 130.658 259.232 130.636 259.283 130.611C262.997 128.763 266.514 126.368 268.498 122.851C270.18 119.868 269.925 112.61 263.757 114.656C260.999 115.568 255.519 128.493 258.017 130.616C255.271 134.463 252.333 138.21 249.176 141.79C249.008 141.678 248.825 141.589 248.633 141.525C249.135 140.502 249.667 139.378 249.799 138.968C250.938 135.435 250.826 127.124 244.96 125.973C240.453 125.089 240.968 130.404 241.485 132.866C242.316 136.831 244.217 139.272 246.665 142.28C246.432 142.939 246.741 143.53 247.252 143.915C241.981 149.615 236.123 154.838 229.577 159.295L229.664 158.858L229.664 158.857C230.083 156.768 230.571 154.332 230.446 153.713C229.79 150.476 227.216 145.689 222.903 145.397C213.842 144.789 218.111 157.272 224.19 161.265C224.312 161.709 224.479 162.097 224.715 162.386C222.572 163.654 220.36 164.841 218.076 165.937C214.647 167.589 211.059 169.156 207.365 170.654C208.265 168.548 209.469 163.478 209.428 162.853C209.175 159.057 205.816 153.697 200.901 154.001C195.371 154.35 197.21 160.779 198.746 164.018C199.375 165.347 202.998 170.832 204.784 171.688C195.933 175.155 186.519 178.226 177.1 181.025C178.896 178.636 183.046 171.682 183.347 170.835C184.902 166.465 184.796 158.257 177.625 156.878C170.669 155.537 170.15 163.768 170.72 168.075C171.065 170.683 171.889 173.554 173.38 175.959C173.649 176.392 174.058 176.835 174.466 177.277C174.958 177.81 175.45 178.342 175.693 178.855C175.91 179.313 175.861 179.698 175.812 180.08C175.761 180.483 175.711 180.883 175.974 181.361C170.89 182.859 165.812 184.28 160.827 185.638C158.475 186.28 156.105 186.879 153.726 187.453C152.938 186.678 151.386 186.481 150.924 187.644C150.857 187.812 150.835 187.975 150.835 188.133C149.042 188.547 147.245 188.949 145.443 189.336C145.611 189.056 145.798 188.637 146.006 188.036C146.422 189.632 147.169 187.941 147.738 186.653C147.94 186.197 148.119 185.792 148.253 185.6C148.779 184.847 149.342 184.121 149.905 183.397L149.905 183.396C151.107 181.849 152.305 180.306 153.126 178.512C154.868 174.703 155.017 167.017 147.975 166.466C141.502 165.955 140.858 172.51 141.275 177.005C141.539 179.849 142.399 182.682 143.38 185.469C143.555 185.966 143.71 186.601 143.863 187.229C144.091 188.162 144.316 189.081 144.597 189.517C137.672 190.984 130.681 192.282 123.689 193.58C120.557 194.161 117.425 194.743 114.299 195.339C114.372 194.921 114.462 194.513 114.552 194.135C114.632 194.343 114.8 194.501 115.06 194.607C115.262 194.355 115.538 194.023 115.869 193.624C119.917 188.758 132.246 173.938 118.839 171.637C109.013 169.958 108.231 187.537 112.295 195.723C107.008 196.745 101.742 197.822 96.5255 199.029C92.7511 199.902 89.023 200.887 85.3616 201.995C88.1036 199.622 91.1844 196.33 91.8156 192.855C92.7335 187.797 89.1176 180.918 82.4323 180.902C74.0919 180.896 77.2898 187.737 80.2886 194.152C81.8198 197.428 83.2991 200.593 83.1639 202.678C71.4142 206.435 60.4632 211.595 51.2753 219.017C41.2831 227.087 29.9634 238.92 27.062 251.836C29.0019 246.469 34.0974 240.978 37.6759 237.123C38.1632 236.598 38.6223 236.103 39.0415 235.643C44.5217 229.629 50.8252 224.235 57.9019 219.738C69.2368 212.537 81.9299 207.865 95.5733 204.619C97.5195 206.345 99.3935 208.729 100.946 210.703L100.946 210.703C101.898 211.914 102.729 212.97 103.381 213.627C106.526 216.793 112.881 222.199 117.352 218.976C121.747 215.807 116.806 210.56 113.496 207.833C110.297 205.199 106.967 203.772 103.218 202.94C110.322 201.472 117.494 200.189 124.666 198.906L124.668 198.905C125.987 198.669 127.306 198.433 128.625 198.196C129.546 199.785 130.412 201.864 131.331 204.07C134.247 211.074 137.703 219.37 145.19 217.433C156.489 214.509 144.172 200.362 137.3 197.788C136.456 197.471 135.602 197.247 134.742 197.084C143.774 195.411 152.749 193.59 161.526 191.252C162.573 191.955 163.709 194.201 165.073 196.899C168.139 202.963 172.36 211.311 179.321 209.567C184.345 208.308 185.275 203.109 183.009 198.823C180.735 194.519 175.626 192.126 170.865 190.981C168.808 190.483 166.732 190.404 164.698 190.539L164.593 190.496L164.493 190.454C173.156 188.098 181.913 185.642 190.527 182.895L190.643 182.994C190.697 183.039 190.751 183.085 190.805 183.132C190.991 183.677 191.533 184.099 192.128 184.277C192.393 184.51 192.663 184.748 192.938 184.991C197.035 188.606 202.3 193.252 207.394 194.706C211.144 195.777 215.431 194.868 213.869 190.538C212.6 187.016 205.934 184.307 202.495 183.385C200.817 182.935 198.754 182.948 196.684 182.96C195.814 182.965 194.943 182.97 194.099 182.941C194.063 182.544 193.838 182.195 193.521 181.929C202.072 179.119 210.444 175.988 218.408 172.36C219.863 173.291 221.312 174.674 222.807 176.101C226.403 179.533 230.262 183.217 235.104 181.459C242.254 178.863 234.465 171.731 229.907 170.157C228.369 169.625 226.759 169.297 225.145 169.106C231.213 165.888 236.56 161.915 241.186 157.277C241.201 157.295 241.215 157.311 241.229 157.328L241.229 157.328L241.229 157.329C241.251 157.355 241.273 157.382 241.302 157.411C241.278 157.383 241.258 157.356 241.239 157.329C241.224 157.309 241.209 157.29 241.193 157.27C241.656 156.805 242.111 156.335 242.558 155.858C242.972 155.858 243.344 155.889 243.519 155.912C241.006 156.135 249.06 160.602 250.568 161.439C253.902 163.288 258.475 165.541 262.124 164.344C265.188 163.337 266.457 160.321 264.649 157.426ZM26.7633 251.132C26.1813 252.766 25.9631 254.404 26.3037 255.99C26.2782 254.348 26.4419 252.727 26.7633 251.132Z" fill="#070C0D"/>
<g opacity="0.5">
<path fill-rule="evenodd" clip-rule="evenodd" d="M753.23 17.3418C745.984 18.3702 729.546 23.0801 723.94 20.2264C720.329 18.3884 731.501 9.44803 733.454 7.55438C741.011 0.227244 749.344 -6.17274 757.825 -12.3823C773.12 -23.5829 790.449 -29.5992 809.129 -33.0863C818.74 -34.8804 829.047 -36.079 838.642 -33.3564C843.06 -32.104 846.584 -28.9202 850.729 -27.4795C855.556 -25.8008 852.47 -26.2867 857.305 -28.021C864.018 -30.4284 870.801 -35.5396 876.795 -39.3574C904.309 -56.8826 1037.98 -162.106 1060.06 -186.242C1062.01 -188.381 1065.27 -185.912 1062.83 -183.352C1049.91 -169.782 949.001 -87.9654 914.879 -62.4081C880.757 -36.8508 850.202 -14.7101 836.263 -8.1471C819.351 -0.184545 796.644 6.85932 778.63 11.8898C770.262 14.2274 761.841 16.1198 753.23 17.3418Z" fill="#69A1AC"/>
<path fill-rule="evenodd" clip-rule="evenodd" d="M970.521 55.4043C967.212 50.1198 970.481 33.3595 970.883 26.0726C971.36 17.413 972.519 8.877 974.124 0.350769C977.577 -18.0029 982.522 -36.1561 988.978 -53.7001C999.502 -82.3007 1012.41 -109.409 1028.62 -135.485C1038.54 -151.447 1050.12 -166.608 1062.48 -180.742C1064.81 -183.408 1082.11 -204.672 1086.28 -201.287C1090.04 -198.244 1073.49 -184.773 1071.53 -182.625C1049.47 -158.392 1031.62 -130.958 1016.58 -101.972C1013.31 -95.6584 1008.82 -88.4363 1007 -81.5447C1005.69 -76.5812 1004.95 -79.5951 1007.03 -74.97C1008.81 -70.9981 1012.27 -67.8096 1013.89 -63.5489C1017.41 -54.2945 1017.1 -43.9556 1016.14 -34.2481C1014.27 -15.3829 1009.78 2.38702 999.977 18.641C994.541 27.6544 988.904 36.5386 982.28 44.7418C980.568 46.8624 972.653 58.808 970.521 55.4043Z" fill="#69A1AC"/>
<path fill-rule="evenodd" clip-rule="evenodd" d="M785.905 195.208C799.327 151.059 818.431 107.219 842.534 67.8909C857.138 44.0627 873.779 21.3792 890.296 -1.14352C915.872 -36.0169 941.741 -70.5731 971.851 -101.709C1002.14 -133.026 1035.85 -170.445 1076.18 -188.691C1040.26 -164.802 1011.83 -128.899 981.402 -98.7597C966.875 -84.3711 953.239 -69.3249 939.898 -53.8456C926.957 -38.8293 915 -22.899 902.926 -7.18379C897.046 0.470031 891.23 8.1715 885.438 15.8912C883.711 18.1946 877.713 24.1003 877.529 26.7373C877.343 29.3915 883.077 36.6769 884.015 39.7715C885.903 46.0035 886.67 52.8106 886.836 59.3151C887.154 71.7842 884.789 85.1064 881.368 97.0763C873.453 124.772 855.489 149.704 834.398 169.046C830.303 172.801 780.526 207.175 782.378 210.357C782.045 210.372 781.715 210.402 781.385 210.447C782.848 205.354 784.368 200.278 785.905 195.208Z" fill="#89C5CC"/>
<path fill-rule="evenodd" clip-rule="evenodd" d="M721.083 -84.9304C720.466 -84.8393 716.279 -84.0902 717.243 -83.3953C715.281 -84.8102 722.346 -83.7022 716.334 -86.1734C720.188 -85.9366 721.595 -89.4739 724.174 -91.9407C728.362 -95.946 733.219 -99.1665 738.104 -102.246C745.824 -107.113 753.941 -111.194 762.574 -114.171C781.389 -120.656 803.587 -122.538 823.076 -118.343C832.697 -116.272 839.509 -111.792 847.698 -106.823C852.871 -103.685 855.387 -105.408 861.628 -107.016C874.624 -110.365 887.512 -113.77 900.278 -117.946C915.523 -122.933 930.644 -128.075 945.685 -133.654C996.351 -152.445 1045.67 -175.303 1090.77 -205.294C1067.94 -183.615 1039.3 -166.768 1011.12 -152.963C990.583 -142.903 969.246 -134.856 947.668 -127.379C942.44 -125.568 935.362 -123.614 930.636 -120.498C927.325 -118.315 925.98 -114.251 923.614 -110.752C914.406 -97.1225 901.113 -85.0322 887.151 -76.3532C871.756 -66.7827 858.74 -68.6095 845.073 -79.5199C840.074 -83.51 834.822 -89.6125 828.885 -92.0039C822.418 -94.6103 813.585 -89.9115 806.601 -88.2974C787.843 -83.961 768.34 -81.417 749.09 -81.4408C743.76 -81.4472 738.461 -81.8601 733.191 -82.6265C729.866 -83.1091 724.191 -85.3903 721.083 -84.9304Z" fill="#89C5CC"/>
</g>
<path fill-rule="evenodd" clip-rule="evenodd" d="M872.633 302.558C869.65 292.607 862.646 284.818 855.374 277.682C841.22 263.789 833.606 255.199 828.562 234.876C825.595 222.924 822.575 210.258 813.165 201.587C806.313 195.272 794.521 189.967 785.357 194.489C771.261 202.903 767.475 220.169 768.896 235.631C770.659 254.794 779.61 266.61 796.807 273.669C806.497 277.644 812.938 282.889 818.197 292.029C822.405 299.338 824.858 308.49 830.145 315.115C838.05 325.019 847.941 329.422 860.134 327.777C848.714 306.766 835.371 285.557 819.277 267.866C817.771 266.087 808.886 259.28 810.678 256.249C812.652 252.911 821.774 265.448 821.709 265.373C826.386 270.741 830.714 276.446 834.963 282.206C834.953 282.211 834.94 282.214 834.928 282.22C839.304 288.13 843.644 294.128 847.902 300.2C849.624 302.769 851.3 305.37 852.905 308.037C855.259 311.95 858.996 323.055 862.849 325.462C863.673 325.976 864.436 326.264 865.148 326.382C867.777 330.687 870.335 335.025 872.767 339.416C879.121 350.882 884.574 362.988 887.076 375.933C887.807 379.711 887.29 393.845 889.869 396.572C894.584 401.561 893.203 391.954 892.921 389.054C890.579 365.041 881.958 344.582 869.441 324.394C873.286 319.372 873.841 306.59 872.633 302.558Z" fill="#F2F2F2"/>
<path fill-rule="evenodd" clip-rule="evenodd" d="M689.753 219.782C678.714 218.977 666.388 227.787 661.063 236.954C656.771 244.346 657.494 254.052 660.145 261.904C661.921 267.162 665.795 274.657 672.257 274.73C680.341 274.822 680.73 264.938 680.887 259.159C681.095 251.477 682.076 244.785 688.195 239.549C688.95 238.902 689.743 238.297 690.536 237.692C691.239 237.155 691.943 236.618 692.62 236.053C692.728 235.962 692.837 235.872 692.946 235.781C695.11 233.982 697.383 232.092 697.659 229.127C698.06 224.83 695.608 224.056 691.864 224.855C691.743 224.88 691.415 225.003 690.969 225.171C689.057 225.888 684.977 227.418 685.749 225.589C686.039 224.9 687.101 224.353 688.441 223.944C691.907 223.571 696.042 223.139 697.231 223.397C710.058 226.181 715.052 243.759 716.379 254.927C716.529 256.191 716.649 257.46 716.753 258.731H719.105C718.94 255.746 718.726 252.767 718.221 249.815C716.331 238.753 710.42 222.506 697.455 220.71C696.977 220.643 695.217 220.632 693.086 220.756C692.076 220.198 690.945 219.86 689.753 219.782Z" fill="#F2F2F2"/>
<path d="M140.484 189.921L141.637 190.531C146.481 193.084 152.143 193.607 157.379 191.985C162.616 190.364 167 186.729 169.57 181.88L174.558 172.443C179.554 171.475 184.271 169.396 188.361 166.359C192.451 163.322 195.809 159.406 198.186 154.899C206.965 138.287 200.622 117.646 184.047 108.886C167.472 100.127 146.845 106.514 138.066 123.126C135.681 127.629 134.337 132.61 134.132 137.7C133.927 142.79 134.867 147.858 136.882 152.532L131.895 161.969C129.336 166.824 128.803 172.494 130.413 177.734C132.024 182.974 135.645 187.357 140.484 189.921ZM144.502 185.108L143.35 184.499C140.777 183.135 138.674 181.03 137.311 178.455C135.949 175.88 135.389 172.953 135.706 170.053L160.744 183.286C158.526 185.181 155.793 186.367 152.898 186.692C150.003 187.017 147.078 186.465 144.502 185.108ZM164.518 178.343L137.664 164.151L141.246 157.373L168.1 171.565L164.518 178.343ZM143.477 125.985C150.675 112.365 167.59 107.126 181.181 114.309C194.773 121.492 199.974 138.419 192.776 152.039C190.713 155.922 187.769 159.267 184.18 161.804C180.592 164.341 176.46 165.999 172.117 166.645L171.962 166.668L143.115 151.423L143.046 151.282C141.134 147.33 140.176 142.981 140.251 138.587C140.326 134.193 141.431 129.877 143.477 125.985Z" fill="#546270"/>
</g>
</svg>
