<svg width="1024" height="276" viewBox="0 0 1024 276" fill="none" xmlns="http://www.w3.org/2000/svg">
<rect y="-5" width="1024" height="281" fill="#7A7482"/>
<mask id="mask0" mask-type="alpha" maskUnits="userSpaceOnUse" x="0" y="0" width="1024" height="276">
<rect width="1024" height="276" fill="#C4C4C4"/>
</mask>
<g mask="url(#mask0)">
<path opacity="0.2" fill-rule="evenodd" clip-rule="evenodd" d="M887.371 51.8287C885.584 55.5352 887.661 60.6856 889.401 63.979C890.071 65.2479 892.109 68.4506 894.24 70.7493C892.94 70.5717 891.633 70.4314 890.321 70.3302C884.926 69.9142 879.473 69.8428 874.099 70.1493C872.697 70.2293 871.158 70.5417 869.6 70.8581L869.599 70.8582C869.071 70.9654 868.541 71.073 868.013 71.1722C867.87 71.0496 867.685 70.9779 867.445 70.9678C867.541 70.9412 867.618 70.9232 867.677 70.9094C867.771 70.8875 867.819 70.8763 867.822 70.858C867.825 70.839 867.78 70.8123 867.688 70.758C867.653 70.7372 867.611 70.7123 867.563 70.6823C864.018 68.5283 860.115 66.8339 856.082 67.0341C852.662 67.2044 846.661 71.295 851.684 75.4179C853.927 77.2629 867.782 74.9957 868.244 71.7504C872.962 72.0177 877.699 72.5019 882.411 73.2599C882.407 73.4616 882.429 73.6638 882.477 73.8606C881.344 73.9817 880.11 74.1324 879.693 74.2397C876.098 75.1629 869.13 79.695 871.289 85.2689C872.948 89.552 877.166 86.2785 878.973 84.5272C881.882 81.708 882.93 78.7966 884.166 75.121C884.848 74.9662 885.183 74.3897 885.236 73.7516C892.87 75.1649 900.413 77.3297 907.677 80.4855L907.261 80.6449L907.26 80.6451C905.27 81.4065 902.95 82.2941 902.494 82.7308C900.106 85.0141 897.433 89.7454 899.489 93.5482C903.812 101.535 912.088 91.26 912.219 83.9885C912.529 83.6486 912.769 83.2997 912.887 82.9457C915.102 84.081 917.287 85.3169 919.434 86.6633C922.661 88.6811 925.902 90.8783 929.141 93.2011C926.88 93.5652 921.95 95.2539 921.443 95.6223C918.369 97.8633 915.63 103.565 918.511 107.558C921.759 112.048 926.213 107.06 928.132 104.032C928.919 102.791 931.623 96.7987 931.393 94.8317C939.05 100.465 946.674 106.785 954.069 113.255C951.09 113.012 942.994 113.215 942.117 113.413C937.592 114.432 930.709 118.903 933.371 125.703C935.952 132.301 943.188 128.345 946.526 125.563C948.546 123.879 950.534 121.65 951.771 119.105C951.994 118.646 952.15 118.064 952.306 117.483C952.494 116.782 952.682 116.082 952.985 115.603C953.256 115.175 953.608 115.011 953.957 114.848C954.326 114.676 954.691 114.505 954.954 114.028C958.935 117.526 962.847 121.061 966.657 124.551C968.456 126.197 970.228 127.881 971.983 129.586C971.749 130.666 972.411 132.084 973.641 131.854C973.819 131.82 973.968 131.752 974.102 131.668C975.409 132.962 976.709 134.267 977.998 135.585C977.671 135.592 977.218 135.658 976.598 135.802C977.726 134.599 975.897 134.87 974.504 135.076C974.011 135.149 973.573 135.214 973.339 135.203C972.421 135.161 971.507 135.072 970.594 134.983L970.594 134.983C968.643 134.793 966.699 134.604 964.744 134.868C960.593 135.428 954.015 139.406 957.309 145.654C960.333 151.4 966.219 148.445 969.797 145.693C972.061 143.95 973.997 141.711 975.829 139.393C976.156 138.98 976.61 138.51 977.06 138.045C977.727 137.354 978.385 136.674 978.603 136.204C983.541 141.275 988.371 146.494 993.201 151.713C995.365 154.05 997.529 156.388 999.702 158.713C999.309 158.874 998.917 159.016 998.549 159.142C998.682 158.963 998.726 158.737 998.677 158.46C998.356 158.424 997.928 158.368 997.414 158.301C991.138 157.476 972.024 154.964 977.237 167.529C981.064 176.734 996.345 168.01 1001.1 160.203C1004.78 164.127 1008.51 168.005 1012.31 171.771C1015.06 174.497 1017.89 177.123 1020.78 179.627C1017.31 178.576 1012.88 177.728 1009.61 179.05C1004.84 180.974 1000.95 187.705 1004.51 193.366C1008.96 200.421 1013.03 194.065 1016.86 188.104C1018.81 185.06 1020.7 182.119 1022.53 181.12C1031.98 189.05 1042.19 195.554 1053.37 199.36C1065.53 203.5 1081.58 206.753 1094.05 202.311C1088.48 203.536 1081.11 202.159 1075.94 201.192C1075.24 201.06 1074.57 200.936 1073.96 200.827C1065.95 199.404 1058.02 196.955 1050.44 193.372C1038.3 187.633 1027.58 179.394 1017.55 169.591C1017.97 167.024 1018.98 164.167 1019.82 161.801L1019.82 161.801C1020.34 160.349 1020.79 159.082 1020.99 158.181C1021.99 153.831 1023.17 145.571 1018.06 143.512C1013.03 141.487 1011.23 148.467 1010.69 152.721C1010.18 156.832 1010.75 160.41 1012.04 164.024C1007.01 158.802 1002.1 153.422 997.183 148.043L997.181 148.041C996.278 147.052 995.374 146.063 994.469 145.074C995.321 143.447 996.616 141.606 997.991 139.65C1002.36 133.445 1007.53 126.093 1001.89 120.797C993.385 112.805 987.999 130.772 989.492 137.958C989.675 138.84 989.941 139.682 990.262 140.496C984.026 133.752 977.694 127.136 971.031 120.963C971.067 119.702 972.36 117.543 973.913 114.948C977.403 109.118 982.207 101.092 977.016 96.138C973.269 92.5615 968.377 94.5509 965.963 98.7555C963.538 102.977 964.242 108.574 965.815 113.211C966.493 115.216 967.534 117.014 968.735 118.661L968.754 118.773L968.772 118.88C962.155 112.813 955.403 106.72 948.481 100.904L948.502 100.752C948.512 100.682 948.522 100.612 948.533 100.542C948.895 100.093 948.962 99.4094 948.795 98.8112C948.85 98.4635 948.908 98.1077 948.966 97.745C949.835 92.3514 950.952 85.419 949.462 80.335C948.365 76.5931 945.308 73.4535 942.48 77.0858C940.181 80.0391 941.449 87.1219 942.505 90.5218C943.021 92.1808 944.133 93.9188 945.249 95.6628C945.717 96.3955 946.187 97.1292 946.613 97.8585C946.297 98.1007 946.121 98.4769 946.066 98.8875C939.124 93.1572 932.007 87.7503 924.687 82.9534C924.697 81.2259 925.093 79.2623 925.502 77.2371C926.484 72.3637 927.539 67.1335 923.467 63.9777C917.454 59.319 915.582 69.7126 916.684 74.4066C917.056 75.9918 917.639 77.5279 918.338 78.9941C912.379 75.5819 906.164 73.182 899.773 71.7468C899.779 71.7245 899.786 71.7038 899.793 71.683L899.793 71.6828L899.793 71.6826C899.804 71.65 899.815 71.6172 899.824 71.5777C899.813 71.6125 899.801 71.6435 899.789 71.6744C899.78 71.6973 899.771 71.7202 899.762 71.7444C899.123 71.6013 898.482 71.4675 897.84 71.3439C897.619 70.994 897.446 70.6628 897.373 70.503C898.903 72.5083 898.38 63.3137 898.282 61.5917C898.066 57.785 897.529 52.7158 894.569 50.27C892.082 48.216 888.854 48.7537 887.371 51.8287ZM1093.61 202.939C1095.31 202.559 1096.81 201.869 1097.97 200.734C1096.59 201.632 1095.13 202.359 1093.61 202.939Z" fill="#070C0D"/>
<g opacity="0.5">
<path fill-rule="evenodd" clip-rule="evenodd" d="M753.23 17.3418C745.984 18.3702 729.546 23.0801 723.94 20.2264C720.329 18.3884 731.501 9.44803 733.454 7.55438C741.011 0.227244 749.344 -6.17274 757.825 -12.3823C773.12 -23.5829 790.449 -29.5992 809.129 -33.0863C818.74 -34.8804 829.047 -36.079 838.642 -33.3564C843.06 -32.104 846.584 -28.9202 850.729 -27.4795C855.556 -25.8008 852.47 -26.2867 857.305 -28.021C864.018 -30.4284 870.801 -35.5396 876.795 -39.3574C904.309 -56.8826 1037.98 -162.106 1060.06 -186.242C1062.01 -188.381 1065.27 -185.912 1062.83 -183.352C1049.91 -169.782 949.001 -87.9654 914.879 -62.4081C880.757 -36.8508 850.202 -14.7101 836.263 -8.1471C819.351 -0.184547 796.644 6.85932 778.63 11.8898C770.262 14.2274 761.841 16.1198 753.23 17.3418Z" fill="#69A1AC"/>
<path fill-rule="evenodd" clip-rule="evenodd" d="M970.521 55.4043C967.212 50.1198 970.481 33.3595 970.883 26.0726C971.36 17.413 972.519 8.877 974.124 0.350769C977.577 -18.0029 982.522 -36.1561 988.978 -53.7001C999.502 -82.3007 1012.41 -109.409 1028.62 -135.485C1038.54 -151.447 1050.12 -166.608 1062.48 -180.742C1064.81 -183.408 1082.11 -204.672 1086.28 -201.287C1090.04 -198.244 1073.49 -184.773 1071.53 -182.625C1049.47 -158.392 1031.62 -130.958 1016.58 -101.972C1013.31 -95.6584 1008.82 -88.4363 1007 -81.5447C1005.69 -76.5812 1004.95 -79.5951 1007.03 -74.97C1008.81 -70.9981 1012.27 -67.8096 1013.89 -63.5489C1017.41 -54.2945 1017.1 -43.9556 1016.14 -34.2481C1014.27 -15.3829 1009.78 2.38702 999.977 18.641C994.541 27.6544 988.904 36.5386 982.28 44.7418C980.568 46.8624 972.653 58.808 970.521 55.4043Z" fill="#69A1AC"/>
<path fill-rule="evenodd" clip-rule="evenodd" d="M785.905 195.208C799.328 151.059 818.431 107.219 842.534 67.8909C857.138 44.0627 873.779 21.3792 890.297 -1.14352C915.873 -36.0169 941.741 -70.5731 971.851 -101.709C1002.14 -133.026 1035.85 -170.445 1076.18 -188.691C1040.26 -164.802 1011.83 -128.899 981.402 -98.7597C966.876 -84.3711 953.239 -69.3249 939.898 -53.8456C926.957 -38.8293 915.001 -22.899 902.926 -7.18379C897.046 0.470028 891.23 8.17151 885.438 15.8912C883.711 18.1946 877.714 24.1003 877.529 26.7373C877.343 29.3915 883.077 36.6769 884.015 39.7715C885.903 46.0035 886.67 52.8106 886.836 59.3151C887.155 71.7842 884.789 85.1064 881.368 97.0763C873.453 124.772 855.489 149.704 834.398 169.046C830.303 172.801 780.526 207.175 782.378 210.357C782.045 210.372 781.715 210.402 781.385 210.447C782.848 205.354 784.369 200.278 785.905 195.208Z" fill="#89C5CC"/>
<path fill-rule="evenodd" clip-rule="evenodd" d="M721.083 -84.9304C720.466 -84.8393 716.279 -84.0902 717.243 -83.3953C715.281 -84.8102 722.346 -83.7022 716.334 -86.1734C720.188 -85.9366 721.595 -89.4739 724.174 -91.9407C728.362 -95.946 733.219 -99.1665 738.104 -102.246C745.824 -107.113 753.941 -111.194 762.574 -114.171C781.389 -120.656 803.587 -122.538 823.076 -118.343C832.697 -116.272 839.509 -111.792 847.698 -106.823C852.871 -103.685 855.387 -105.408 861.628 -107.016C874.624 -110.365 887.512 -113.77 900.278 -117.946C915.523 -122.933 930.644 -128.075 945.685 -133.654C996.351 -152.445 1045.67 -175.303 1090.77 -205.294C1067.94 -183.615 1039.3 -166.768 1011.12 -152.963C990.583 -142.903 969.246 -134.856 947.668 -127.379C942.44 -125.568 935.362 -123.614 930.636 -120.498C927.325 -118.315 925.98 -114.251 923.614 -110.752C914.406 -97.1225 901.113 -85.0322 887.151 -76.3532C871.756 -66.7827 858.74 -68.6095 845.073 -79.5199C840.074 -83.51 834.822 -89.6125 828.885 -92.0039C822.418 -94.6103 813.585 -89.9115 806.601 -88.2974C787.843 -83.961 768.34 -81.417 749.09 -81.4408C743.76 -81.4472 738.461 -81.8601 733.191 -82.6265C729.866 -83.1091 724.191 -85.3903 721.083 -84.9304Z" fill="#89C5CC"/>
</g>
<path fill-rule="evenodd" clip-rule="evenodd" d="M872.633 302.558C869.65 292.607 862.646 284.818 855.375 277.682C841.22 263.789 833.607 255.199 828.562 234.876C825.595 222.924 822.575 210.258 813.165 201.587C806.313 195.272 794.521 189.967 785.358 194.489C771.261 202.903 767.475 220.169 768.897 235.631C770.659 254.794 779.61 266.61 796.807 273.669C806.497 277.644 812.938 282.889 818.198 292.029C822.405 299.338 824.858 308.49 830.145 315.115C838.05 325.019 847.941 329.422 860.134 327.777C848.714 306.766 835.371 285.557 819.278 267.866C817.771 266.087 808.886 259.28 810.678 256.249C812.652 252.911 821.774 265.448 821.709 265.373C826.386 270.741 830.714 276.446 834.963 282.206C834.953 282.211 834.94 282.214 834.928 282.22C839.304 288.13 843.644 294.128 847.902 300.2C849.624 302.769 851.3 305.37 852.905 308.037C855.259 311.95 858.996 323.055 862.849 325.462C863.673 325.976 864.436 326.264 865.148 326.382C867.777 330.687 870.335 335.025 872.768 339.416C879.121 350.882 884.574 362.988 887.076 375.933C887.807 379.711 887.29 393.845 889.869 396.572C894.585 401.561 893.203 391.954 892.921 389.054C890.579 365.041 881.958 344.582 869.441 324.394C873.286 319.372 873.842 306.59 872.633 302.558" fill="#F2F2F2"/>
<path fill-rule="evenodd" clip-rule="evenodd" d="M689.752 219.782C678.714 218.977 666.388 227.787 661.063 236.954C656.771 244.346 657.494 254.052 660.145 261.904C661.92 267.162 665.795 274.657 672.257 274.73C680.341 274.822 680.73 264.938 680.887 259.159C681.094 251.477 682.076 244.785 688.195 239.549C688.95 238.902 689.743 238.297 690.536 237.692C691.239 237.155 691.943 236.618 692.62 236.053C692.728 235.962 692.837 235.872 692.946 235.781C695.11 233.982 697.382 232.092 697.659 229.127C698.06 224.83 695.608 224.056 691.864 224.855C691.743 224.88 691.415 225.003 690.969 225.171C689.057 225.888 684.977 227.418 685.749 225.589C686.039 224.9 687.101 224.353 688.44 223.944C691.907 223.571 696.042 223.139 697.231 223.397C710.058 226.181 715.052 243.759 716.378 254.927C716.529 256.191 716.649 257.46 716.753 258.731H719.105C718.94 255.746 718.725 252.767 718.221 249.815C716.331 238.753 710.419 222.506 697.455 220.71C696.977 220.643 695.217 220.632 693.086 220.756C692.076 220.198 690.945 219.86 689.752 219.782Z" fill="#F2F2F2"/>
<circle cx="929.5" cy="251.5" r="63.5" fill="#FDF6C3" fill-opacity="0.6"/>
<path opacity="0.2" fill-rule="evenodd" clip-rule="evenodd" d="M264.649 157.426C262.469 153.936 257.005 152.942 253.291 152.655C251.861 152.544 248.065 152.557 244.983 153.131C245.828 152.127 246.644 151.097 247.43 150.042C250.662 145.702 253.634 141.13 256.244 136.422C256.925 135.194 257.482 133.726 258.047 132.239L258.047 132.238C258.238 131.735 258.43 131.229 258.628 130.73C258.808 130.675 258.968 130.556 259.105 130.359C259.076 130.454 259.05 130.529 259.03 130.586C258.998 130.677 258.982 130.724 258.996 130.736C259.011 130.749 259.057 130.725 259.152 130.676C259.188 130.658 259.232 130.636 259.283 130.611C262.997 128.763 266.514 126.368 268.498 122.851C270.18 119.868 269.925 112.61 263.757 114.656C260.999 115.568 255.519 128.493 258.017 130.616C255.271 134.463 252.333 138.21 249.176 141.79C249.008 141.678 248.825 141.589 248.633 141.525C249.135 140.502 249.667 139.378 249.799 138.968C250.938 135.435 250.826 127.124 244.96 125.973C240.453 125.089 240.968 130.404 241.485 132.866C242.316 136.831 244.217 139.272 246.665 142.28C246.432 142.939 246.741 143.53 247.252 143.915C241.981 149.615 236.123 154.838 229.577 159.295L229.664 158.858L229.664 158.857C230.083 156.768 230.571 154.332 230.446 153.713C229.79 150.476 227.216 145.689 222.903 145.397C213.842 144.789 218.111 157.272 224.19 161.265C224.312 161.709 224.479 162.097 224.715 162.386C222.572 163.654 220.36 164.841 218.076 165.937C214.647 167.589 211.059 169.156 207.365 170.654C208.265 168.548 209.469 163.478 209.428 162.853C209.175 159.057 205.816 153.697 200.901 154.001C195.371 154.35 197.21 160.779 198.746 164.018C199.375 165.347 202.998 170.832 204.784 171.688C195.933 175.155 186.519 178.226 177.1 181.025C178.896 178.636 183.046 171.682 183.347 170.835C184.902 166.465 184.796 158.257 177.625 156.878C170.669 155.537 170.15 163.768 170.72 168.075C171.065 170.683 171.889 173.554 173.38 175.959C173.649 176.392 174.058 176.835 174.466 177.277C174.958 177.81 175.45 178.342 175.693 178.855C175.91 179.313 175.861 179.698 175.812 180.08C175.761 180.483 175.711 180.883 175.974 181.361C170.89 182.859 165.812 184.28 160.827 185.638C158.475 186.28 156.105 186.879 153.726 187.453C152.938 186.678 151.386 186.481 150.924 187.644C150.857 187.812 150.835 187.975 150.835 188.133C149.042 188.547 147.245 188.949 145.443 189.336C145.611 189.056 145.798 188.637 146.006 188.036C146.422 189.632 147.169 187.941 147.738 186.653C147.94 186.197 148.119 185.792 148.253 185.6C148.779 184.847 149.342 184.121 149.905 183.397L149.905 183.396C151.107 181.849 152.305 180.306 153.126 178.512C154.868 174.703 155.017 167.017 147.975 166.466C141.502 165.955 140.858 172.51 141.275 177.005C141.539 179.849 142.399 182.682 143.38 185.469C143.555 185.966 143.71 186.601 143.863 187.229C144.091 188.162 144.316 189.081 144.597 189.517C137.672 190.984 130.681 192.282 123.689 193.58C120.557 194.161 117.425 194.743 114.299 195.339C114.372 194.921 114.462 194.513 114.552 194.135C114.632 194.343 114.8 194.501 115.06 194.607C115.262 194.355 115.538 194.023 115.869 193.624C119.917 188.758 132.246 173.938 118.839 171.637C109.013 169.958 108.231 187.537 112.295 195.723C107.008 196.745 101.742 197.822 96.5255 199.029C92.7511 199.902 89.023 200.887 85.3616 201.995C88.1036 199.622 91.1844 196.33 91.8156 192.855C92.7335 187.797 89.1176 180.918 82.4323 180.902C74.0919 180.896 77.2898 187.737 80.2886 194.152C81.8198 197.428 83.2991 200.593 83.1639 202.678C71.4142 206.435 60.4632 211.595 51.2753 219.017C41.2831 227.087 29.9634 238.92 27.062 251.836C29.0019 246.469 34.0974 240.978 37.6759 237.123C38.1632 236.598 38.6223 236.103 39.0415 235.643C44.5217 229.629 50.8252 224.235 57.9019 219.738C69.2368 212.537 81.9299 207.865 95.5733 204.619C97.5195 206.345 99.3935 208.729 100.946 210.703L100.946 210.703C101.898 211.914 102.729 212.97 103.381 213.627C106.526 216.793 112.881 222.199 117.352 218.976C121.747 215.807 116.806 210.56 113.496 207.833C110.297 205.199 106.967 203.772 103.218 202.94C110.322 201.472 117.494 200.189 124.666 198.906L124.668 198.905C125.987 198.669 127.306 198.433 128.625 198.196C129.546 199.785 130.412 201.864 131.331 204.07C134.247 211.074 137.703 219.37 145.19 217.433C156.489 214.509 144.172 200.362 137.3 197.788C136.456 197.471 135.602 197.247 134.742 197.084C143.774 195.411 152.749 193.59 161.526 191.252C162.573 191.955 163.709 194.201 165.073 196.899C168.139 202.963 172.36 211.311 179.321 209.567C184.345 208.308 185.275 203.109 183.009 198.823C180.735 194.519 175.626 192.126 170.865 190.981C168.808 190.483 166.732 190.404 164.698 190.539L164.593 190.496L164.493 190.454C173.156 188.098 181.913 185.642 190.527 182.895L190.643 182.994C190.697 183.039 190.751 183.085 190.805 183.132C190.991 183.677 191.533 184.099 192.128 184.277C192.393 184.51 192.663 184.748 192.938 184.991C197.035 188.606 202.3 193.252 207.394 194.706C211.144 195.777 215.431 194.868 213.869 190.538C212.6 187.016 205.934 184.307 202.495 183.385C200.817 182.935 198.754 182.948 196.684 182.96C195.814 182.965 194.943 182.97 194.099 182.941C194.063 182.544 193.838 182.195 193.521 181.929C202.072 179.119 210.444 175.988 218.408 172.36C219.863 173.291 221.312 174.674 222.807 176.101C226.403 179.533 230.262 183.217 235.104 181.459C242.254 178.863 234.465 171.731 229.907 170.157C228.369 169.625 226.759 169.297 225.145 169.106C231.213 165.888 236.56 161.915 241.186 157.277C241.201 157.295 241.215 157.311 241.229 157.328L241.229 157.328L241.229 157.329C241.251 157.355 241.273 157.382 241.302 157.411C241.278 157.383 241.258 157.356 241.239 157.329C241.224 157.309 241.209 157.29 241.193 157.27C241.656 156.805 242.111 156.335 242.558 155.858C242.972 155.858 243.344 155.889 243.519 155.912C241.006 156.135 249.06 160.602 250.568 161.439C253.902 163.288 258.475 165.541 262.124 164.344C265.188 163.337 266.457 160.321 264.649 157.426ZM26.7633 251.132C26.1813 252.766 25.9631 254.404 26.3037 255.99C26.2782 254.348 26.4419 252.727 26.7633 251.132Z" fill="#070C0D"/>
<circle cx="134" cy="23" r="82" fill="#FDF6C3" fill-opacity="0.6"/>
<g opacity="0.5">
<path fill-rule="evenodd" clip-rule="evenodd" d="M753.23 17.3418C745.984 18.3702 729.546 23.0801 723.94 20.2264C720.329 18.3884 731.501 9.44803 733.454 7.55438C741.011 0.227244 749.344 -6.17274 757.825 -12.3823C773.12 -23.5829 790.449 -29.5992 809.129 -33.0863C818.74 -34.8804 829.047 -36.079 838.642 -33.3564C843.06 -32.104 846.584 -28.9202 850.729 -27.4795C855.556 -25.8008 852.47 -26.2867 857.305 -28.021C864.018 -30.4284 870.801 -35.5396 876.795 -39.3574C904.309 -56.8826 1037.98 -162.106 1060.06 -186.242C1062.01 -188.381 1065.27 -185.912 1062.83 -183.352C1049.91 -169.782 949.001 -87.9654 914.879 -62.4081C880.757 -36.8508 850.202 -14.7101 836.263 -8.1471C819.351 -0.184547 796.644 6.85932 778.63 11.8898C770.262 14.2274 761.841 16.1198 753.23 17.3418Z" fill="#69A1AC"/>
<path fill-rule="evenodd" clip-rule="evenodd" d="M970.521 55.4043C967.212 50.1198 970.481 33.3595 970.883 26.0726C971.36 17.413 972.519 8.877 974.124 0.350769C977.577 -18.0029 982.522 -36.1561 988.978 -53.7001C999.502 -82.3007 1012.41 -109.409 1028.62 -135.485C1038.54 -151.447 1050.12 -166.608 1062.48 -180.742C1064.81 -183.408 1082.11 -204.672 1086.28 -201.287C1090.04 -198.244 1073.49 -184.773 1071.53 -182.625C1049.47 -158.392 1031.62 -130.958 1016.58 -101.972C1013.31 -95.6584 1008.82 -88.4363 1007 -81.5447C1005.69 -76.5812 1004.95 -79.5951 1007.03 -74.97C1008.81 -70.9981 1012.27 -67.8096 1013.89 -63.5489C1017.41 -54.2945 1017.1 -43.9556 1016.14 -34.2481C1014.27 -15.3829 1009.78 2.38702 999.977 18.641C994.541 27.6544 988.904 36.5386 982.28 44.7418C980.568 46.8624 972.653 58.808 970.521 55.4043Z" fill="#69A1AC"/>
<path fill-rule="evenodd" clip-rule="evenodd" d="M785.905 195.208C799.328 151.059 818.431 107.219 842.534 67.8909C857.138 44.0627 873.779 21.3792 890.297 -1.14352C915.873 -36.0169 941.741 -70.5731 971.851 -101.709C1002.14 -133.026 1035.85 -170.445 1076.18 -188.691C1040.26 -164.802 1011.83 -128.899 981.402 -98.7597C966.876 -84.3711 953.239 -69.3249 939.898 -53.8456C926.957 -38.8293 915.001 -22.899 902.926 -7.18379C897.046 0.470028 891.23 8.17151 885.438 15.8912C883.711 18.1946 877.714 24.1003 877.529 26.7373C877.343 29.3915 883.077 36.6769 884.015 39.7715C885.903 46.0035 886.67 52.8106 886.836 59.3151C887.155 71.7842 884.789 85.1064 881.368 97.0763C873.453 124.772 855.489 149.704 834.398 169.046C830.303 172.801 780.526 207.175 782.378 210.357C782.045 210.372 781.715 210.402 781.385 210.447C782.848 205.354 784.369 200.278 785.905 195.208Z" fill="#89C5CC"/>
<path fill-rule="evenodd" clip-rule="evenodd" d="M721.083 -84.9304C720.466 -84.8393 716.279 -84.0902 717.243 -83.3953C715.281 -84.8102 722.346 -83.7022 716.334 -86.1734C720.188 -85.9366 721.595 -89.4739 724.174 -91.9407C728.362 -95.946 733.219 -99.1665 738.104 -102.246C745.824 -107.113 753.941 -111.194 762.574 -114.171C781.389 -120.656 803.587 -122.538 823.076 -118.343C832.697 -116.272 839.509 -111.792 847.698 -106.823C852.871 -103.685 855.387 -105.408 861.628 -107.016C874.624 -110.365 887.512 -113.77 900.278 -117.946C915.523 -122.933 930.644 -128.075 945.685 -133.654C996.351 -152.445 1045.67 -175.303 1090.77 -205.294C1067.94 -183.615 1039.3 -166.768 1011.12 -152.963C990.583 -142.903 969.246 -134.856 947.668 -127.379C942.44 -125.568 935.362 -123.614 930.636 -120.498C927.325 -118.315 925.98 -114.251 923.614 -110.752C914.406 -97.1225 901.113 -85.0322 887.151 -76.3532C871.756 -66.7827 858.74 -68.6095 845.073 -79.5199C840.074 -83.51 834.822 -89.6125 828.885 -92.0039C822.418 -94.6103 813.585 -89.9115 806.601 -88.2974C787.843 -83.961 768.34 -81.417 749.09 -81.4408C743.76 -81.4472 738.461 -81.8601 733.191 -82.6265C729.866 -83.1091 724.191 -85.3903 721.083 -84.9304Z" fill="#89C5CC"/>
</g>
</g>
</svg>
